<?xml version="1.0" encoding="UTF-8" standalone="no"?>
<!-- Created with Inkscape (http://www.inkscape.org/) -->

<svg
   width="10"
   height="10"
   id="svg2"
   version="1.1"
   inkscape:version="1.1.2 (b8e25be833, 2022-02-05)"
   sodipodi:docname="simplify_light.svg"
   viewBox="0 0 10 10"
   xmlns:inkscape="http://www.inkscape.org/namespaces/inkscape"
   xmlns:sodipodi="http://sodipodi.sourceforge.net/DTD/sodipodi-0.dtd"
   xmlns="http://www.w3.org/2000/svg"
   xmlns:svg="http://www.w3.org/2000/svg"
   xmlns:rdf="http://www.w3.org/1999/02/22-rdf-syntax-ns#"
   xmlns:cc="http://creativecommons.org/ns#"
   xmlns:dc="http://purl.org/dc/elements/1.1/">
  <defs
     id="defs4" />
  <sodipodi:namedview
     id="base"
     pagecolor="#000000"
     bordercolor="#c0c0c0"
     borderopacity="1"
     inkscape:pageopacity="0"
     inkscape:pageshadow="2"
     inkscape:zoom="30.53817"
     inkscape:cx="8.4156975"
     inkscape:cy="6.3854514"
     inkscape:document-units="mm"
     inkscape:current-layer="layer1"
     showgrid="true"
     showguides="true"
     inkscape:guide-bbox="true"
     inkscape:object-nodes="true"
     guidecolor="#0092ff"
     guideopacity="0.49803922"
     guidehicolor="#ff5200"
     guidehiopacity="0.49803922"
     fit-margin-top="0"
     fit-margin-left="0"
     fit-margin-right="0"
     fit-margin-bottom="0"
     inkscape:snap-global="true"
     inkscape:window-width="1920"
     inkscape:window-height="1017"
     inkscape:window-x="-8"
     inkscape:window-y="-8"
     inkscape:window-maximized="1"
     borderlayer="true"
     units="px"
     inkscape:pagecheckerboard="0"
     height="7px">
    <inkscape:grid
       type="xygrid"
       id="grid2242"
       originx="-5.8789061e-05"
       originy="6.4096091e-06"
       enabled="true"
       spacingx="0.49999999"
       spacingy="0.49999999"
       empspacing="2"
       color="#c63fff"
       opacity="0.0627451" />
  </sodipodi:namedview>
  <metadata
     id="metadata7">
    <rdf:RDF>
      <cc:Work
         rdf:about="">
        <dc:format>image/svg+xml</dc:format>
        <dc:type
           rdf:resource="http://purl.org/dc/dcmitype/StillImage" />
        <dc:creator>
          <cc:Agent>
            <dc:title>Pablo Gil</dc:title>
          </cc:Agent>
        </dc:creator>
        <dc:subject>
          <rdf:Bag>
            <rdf:li>SVG</rdf:li>
            <rdf:li>template</rdf:li>
          </rdf:Bag>
        </dc:subject>
      </cc:Work>
    </rdf:RDF>
  </metadata>
  <g
     inkscape:label="Capa 1"
     inkscape:groupmode="layer"
     id="layer1"
     transform="translate(-1074.0664,-350.59799)">
    <path
       id="rect540"
       style="fill:#cacaca;fill-opacity:1;stroke-width:1.23846"
       d="m 1074.0666,355.60182 c -0.012,0.67967 0.5069,1.23648 1.1586,1.24628 l 4.2736,0.0643 -1.666,1.42481 c -0.4416,0.37803 -0.505,1.05456 -0.1425,1.51508 l 0.2769,0.35187 c 0.3625,0.46051 1.0087,0.5264 1.4503,0.14879 l 4.2052,-3.59647 c 0.1465,-0.12472 0.2499,-0.28406 0.3113,-0.45616 0.081,-0.16368 0.1283,-0.35032 0.1324,-0.54774 v -0.15091 c 0,-0.19741 -0.039,-0.38543 -0.1165,-0.55146 -0.056,-0.17388 -0.1554,-0.33557 -0.2985,-0.46536 l -4.1039,-3.72156 c -0.4311,-0.39105 -1.0787,-0.34465 -1.4539,0.1052 l -0.2865,0.34339 c -0.375,0.44942 -0.3306,1.12755 0.1,1.51873 l 1.6259,1.47438 -4.2736,-0.0643 c -0.6519,-0.01 -1.1832,0.53122 -1.1927,1.21089 z" />
    <rect
       style="fill:#cacaca;fill-opacity:1"
       id="rect5743"
       width="5.7031251e-05"
       height="1.0000044"
       x="1074.0663"
       y="355.09799"
       ry="1.3552527e-20" />
  </g>
</svg>
