<?xml version="1.0" encoding="us-ascii" standalone="no"?><svg xmlns="http://www.w3.org/2000/svg" xmlns:xlink="http://www.w3.org/1999/xlink" contentStyleType="text/css" height="1045px" preserveAspectRatio="none" style="width:3618px;height:1045px;background:#FFFFFF;" version="1.1" viewBox="0 0 3618 1045" width="3618px" zoomAndPan="magnify"><defs/><g><!--class codelink.backend.base_item.BaseItem--><g id="elem_codelink.backend.base_item.BaseItem"><rect codeLine="2" fill="#F1F1F1" height="157.4844" id="codelink.backend.base_item.BaseItem" rx="2.5" ry="2.5" style="stroke:#181818;stroke-width:0.5;" width="942" x="802" y="335"/><ellipse cx="1148.25" cy="351" fill="#ADD1B2" rx="11" ry="11" style="stroke:#181818;stroke-width:1.0;"/><path d="M1151.0156,346.875 Q1151.1719,346.6563 1151.3594,346.5469 Q1151.5469,346.4375 1151.7656,346.4375 Q1152.1406,346.4375 1152.375,346.7031 Q1152.6094,346.9531 1152.6094,347.5625 L1152.6094,349.0156 Q1152.6094,349.625 1152.375,349.8906 Q1152.1406,350.1563 1151.7656,350.1563 Q1151.4219,350.1563 1151.2188,349.9531 Q1151.0156,349.7656 1150.9063,349.25 Q1150.8594,348.8906 1150.6719,348.7031 Q1150.3438,348.3281 1149.7344,348.1094 Q1149.125,347.8906 1148.5,347.8906 Q1147.7344,347.8906 1147.0938,348.2188 Q1146.4688,348.5469 1145.9688,349.2969 Q1145.4844,350.0469 1145.4844,351.0781 L1145.4844,352.1719 Q1145.4844,353.4063 1146.375,354.2344 Q1147.2656,355.0469 1148.8594,355.0469 Q1149.7969,355.0469 1150.4531,354.7969 Q1150.8438,354.6406 1151.2656,354.2031 Q1151.5313,353.9375 1151.6719,353.8594 Q1151.8281,353.7813 1152.0313,353.7813 Q1152.3594,353.7813 1152.6094,354.0469 Q1152.875,354.2969 1152.875,354.6406 Q1152.875,354.9844 1152.5313,355.3906 Q1152.0313,355.9688 1151.2344,356.2969 Q1150.1563,356.75 1148.8594,356.75 Q1147.3438,356.75 1146.1406,356.125 Q1145.1563,355.625 1144.4688,354.5625 Q1143.7813,353.4844 1143.7813,352.2031 L1143.7813,351.0469 Q1143.7813,349.7188 1144.3906,348.5781 Q1145.0156,347.4219 1146.1094,346.8125 Q1147.2031,346.1875 1148.4375,346.1875 Q1149.1719,346.1875 1149.8125,346.3594 Q1150.4688,346.5156 1151.0156,346.875 Z " fill="#000000"/><text fill="#000000" font-family="sans-serif" font-size="14" lengthAdjust="spacing" textLength="241" x="1168.75" y="355.8535">codelink.backend.base_item.BaseItem</text><line style="stroke:#181818;stroke-width:0.5;" x1="803" x2="1743" y1="367" y2="367"/><text fill="#000000" font-family="sans-serif" font-size="14" lengthAdjust="spacing" textLength="22" x="808" y="383.6738">key</text><text fill="#000000" font-family="sans-serif" font-size="14" lengthAdjust="spacing" textLength="34" x="808" y="399.3145">value</text><line style="stroke:#181818;stroke-width:0.5;" x1="803" x2="1743" y1="406.2813" y2="406.2813"/><text fill="#000000" font-family="sans-serif" font-size="14" lengthAdjust="spacing" textLength="930" x="808" y="422.9551">create_editor(parent: QtWidgets.QWidget, option: QtWidgets.QStyleOptionViewItem, index: QtCore.QModelIndex()) -&gt; Optional[QtWidgets.QWidget]</text><text fill="#000000" font-family="sans-serif" font-size="14" font-style="italic" lengthAdjust="spacing" textLength="694" x="808" y="438.5957">paint(painter: QtGui.QPainter, option: QtWidgets.QStyleOptionViewItem, index: QtCore.QModelIndex) -&gt; None</text><text fill="#000000" font-family="sans-serif" font-size="14" font-style="italic" lengthAdjust="spacing" textLength="528" x="808" y="454.2363">set_editor_data(editor: QtWidgets.QWidget, index: QtCore.QModelIndex()) -&gt; None</text><text fill="#000000" font-family="sans-serif" font-size="14" lengthAdjust="spacing" textLength="750" x="808" y="469.877">set_model_data(editor: QtWidgets.QWidget, model: QtCore.QAbstractItemModel, index: QtCore.QModelIndex()) -&gt; bool</text><text fill="#000000" font-family="sans-serif" font-size="14" font-style="italic" lengthAdjust="spacing" textLength="850" x="808" y="485.5176">update_editor_geometry(editor: QtWidgets.QWidget, option: QtWidgets.QStyleOptionViewItem, index: QtCore.QModelIndex()) -&gt; None</text></g><!--class codelink.backend.document_model.DocumentModel--><g id="elem_codelink.backend.document_model.DocumentModel"><rect codeLine="11" fill="#F1F1F1" height="110.5625" id="codelink.backend.document_model.DocumentModel" rx="2.5" ry="2.5" style="stroke:#181818;stroke-width:0.5;" width="360" x="2080" y="358"/><ellipse cx="2095" cy="374" fill="#ADD1B2" rx="11" ry="11" style="stroke:#181818;stroke-width:1.0;"/><path d="M2097.7656,369.875 Q2097.9219,369.6563 2098.1094,369.5469 Q2098.2969,369.4375 2098.5156,369.4375 Q2098.8906,369.4375 2099.125,369.7031 Q2099.3594,369.9531 2099.3594,370.5625 L2099.3594,372.0156 Q2099.3594,372.625 2099.125,372.8906 Q2098.8906,373.1563 2098.5156,373.1563 Q2098.1719,373.1563 2097.9688,372.9531 Q2097.7656,372.7656 2097.6563,372.25 Q2097.6094,371.8906 2097.4219,371.7031 Q2097.0938,371.3281 2096.4844,371.1094 Q2095.875,370.8906 2095.25,370.8906 Q2094.4844,370.8906 2093.8438,371.2188 Q2093.2188,371.5469 2092.7188,372.2969 Q2092.2344,373.0469 2092.2344,374.0781 L2092.2344,375.1719 Q2092.2344,376.4063 2093.125,377.2344 Q2094.0156,378.0469 2095.6094,378.0469 Q2096.5469,378.0469 2097.2031,377.7969 Q2097.5938,377.6406 2098.0156,377.2031 Q2098.2813,376.9375 2098.4219,376.8594 Q2098.5781,376.7813 2098.7813,376.7813 Q2099.1094,376.7813 2099.3594,377.0469 Q2099.625,377.2969 2099.625,377.6406 Q2099.625,377.9844 2099.2813,378.3906 Q2098.7813,378.9688 2097.9844,379.2969 Q2096.9063,379.75 2095.6094,379.75 Q2094.0938,379.75 2092.8906,379.125 Q2091.9063,378.625 2091.2188,377.5625 Q2090.5313,376.4844 2090.5313,375.2031 L2090.5313,374.0469 Q2090.5313,372.7188 2091.1406,371.5781 Q2091.7656,370.4219 2092.8594,369.8125 Q2093.9531,369.1875 2095.1875,369.1875 Q2095.9219,369.1875 2096.5625,369.3594 Q2097.2188,369.5156 2097.7656,369.875 Z " fill="#000000"/><text fill="#000000" font-family="sans-serif" font-size="14" lengthAdjust="spacing" textLength="328" x="2109" y="378.8535">codelink.backend.document_model.DocumentModel</text><line style="stroke:#181818;stroke-width:0.5;" x1="2081" x2="2439" y1="390" y2="390"/><text fill="#000000" font-family="sans-serif" font-size="14" lengthAdjust="spacing" textLength="61" x="2086" y="406.6738">file_name</text><text fill="#000000" font-family="sans-serif" font-size="14" lengthAdjust="spacing" textLength="71" x="2086" y="422.3145">is_modified</text><line style="stroke:#181818;stroke-width:0.5;" x1="2081" x2="2439" y1="429.2813" y2="429.2813"/><text fill="#000000" font-family="sans-serif" font-size="14" lengthAdjust="spacing" textLength="155" x="2086" y="445.9551">add_test_data() -&gt; None</text><text fill="#000000" font-family="sans-serif" font-size="14" lengthAdjust="spacing" textLength="180" x="2086" y="461.5957">get_pretty_file_name() -&gt; str</text></g><!--class codelink.backend.edge_item.EdgeItem--><g id="elem_codelink.backend.edge_item.EdgeItem"><rect codeLine="17" fill="#F1F1F1" height="79.2813" id="codelink.backend.edge_item.EdgeItem" rx="2.5" ry="2.5" style="stroke:#181818;stroke-width:0.5;" width="275" x="491.5" y="374"/><ellipse cx="506.5" cy="390" fill="#ADD1B2" rx="11" ry="11" style="stroke:#181818;stroke-width:1.0;"/><path d="M509.2656,385.875 Q509.4219,385.6563 509.6094,385.5469 Q509.7969,385.4375 510.0156,385.4375 Q510.3906,385.4375 510.625,385.7031 Q510.8594,385.9531 510.8594,386.5625 L510.8594,388.0156 Q510.8594,388.625 510.625,388.8906 Q510.3906,389.1563 510.0156,389.1563 Q509.6719,389.1563 509.4688,388.9531 Q509.2656,388.7656 509.1563,388.25 Q509.1094,387.8906 508.9219,387.7031 Q508.5938,387.3281 507.9844,387.1094 Q507.375,386.8906 506.75,386.8906 Q505.9844,386.8906 505.3438,387.2188 Q504.7188,387.5469 504.2188,388.2969 Q503.7344,389.0469 503.7344,390.0781 L503.7344,391.1719 Q503.7344,392.4063 504.625,393.2344 Q505.5156,394.0469 507.1094,394.0469 Q508.0469,394.0469 508.7031,393.7969 Q509.0938,393.6406 509.5156,393.2031 Q509.7813,392.9375 509.9219,392.8594 Q510.0781,392.7813 510.2813,392.7813 Q510.6094,392.7813 510.8594,393.0469 Q511.125,393.2969 511.125,393.6406 Q511.125,393.9844 510.7813,394.3906 Q510.2813,394.9688 509.4844,395.2969 Q508.4063,395.75 507.1094,395.75 Q505.5938,395.75 504.3906,395.125 Q503.4063,394.625 502.7188,393.5625 Q502.0313,392.4844 502.0313,391.2031 L502.0313,390.0469 Q502.0313,388.7188 502.6406,387.5781 Q503.2656,386.4219 504.3594,385.8125 Q505.4531,385.1875 506.6875,385.1875 Q507.4219,385.1875 508.0625,385.3594 Q508.7188,385.5156 509.2656,385.875 Z " fill="#000000"/><text fill="#000000" font-family="sans-serif" font-size="14" lengthAdjust="spacing" textLength="243" x="520.5" y="394.8535">codelink.backend.edge_item.EdgeItem</text><line style="stroke:#181818;stroke-width:0.5;" x1="492.5" x2="765.5" y1="406" y2="406"/><text fill="#000000" font-family="sans-serif" font-size="14" lengthAdjust="spacing" textLength="104" x="497.5" y="422.6738">destination_uuid</text><text fill="#000000" font-family="sans-serif" font-size="14" lengthAdjust="spacing" textLength="78" x="497.5" y="438.3145">source_uuid</text><line style="stroke:#181818;stroke-width:0.5;" x1="492.5" x2="765.5" y1="445.2813" y2="445.2813"/></g><!--class codelink.backend.node_factory.NodeFactory--><g id="elem_codelink.backend.node_factory.NodeFactory"><rect codeLine="21" fill="#F1F1F1" height="110.5625" id="codelink.backend.node_factory.NodeFactory" rx="2.5" ry="2.5" style="stroke:#181818;stroke-width:0.5;" width="315" x="2211.5" y="7"/><ellipse cx="2226.95" cy="23" fill="#ADD1B2" rx="11" ry="11" style="stroke:#181818;stroke-width:1.0;"/><path d="M2229.7156,18.875 Q2229.8719,18.6563 2230.0594,18.5469 Q2230.2469,18.4375 2230.4656,18.4375 Q2230.8406,18.4375 2231.075,18.7031 Q2231.3094,18.9531 2231.3094,19.5625 L2231.3094,21.0156 Q2231.3094,21.625 2231.075,21.8906 Q2230.8406,22.1563 2230.4656,22.1563 Q2230.1219,22.1563 2229.9188,21.9531 Q2229.7156,21.7656 2229.6063,21.25 Q2229.5594,20.8906 2229.3719,20.7031 Q2229.0438,20.3281 2228.4344,20.1094 Q2227.825,19.8906 2227.2,19.8906 Q2226.4344,19.8906 2225.7938,20.2188 Q2225.1688,20.5469 2224.6688,21.2969 Q2224.1844,22.0469 2224.1844,23.0781 L2224.1844,24.1719 Q2224.1844,25.4063 2225.075,26.2344 Q2225.9656,27.0469 2227.5594,27.0469 Q2228.4969,27.0469 2229.1531,26.7969 Q2229.5438,26.6406 2229.9656,26.2031 Q2230.2313,25.9375 2230.3719,25.8594 Q2230.5281,25.7813 2230.7313,25.7813 Q2231.0594,25.7813 2231.3094,26.0469 Q2231.575,26.2969 2231.575,26.6406 Q2231.575,26.9844 2231.2313,27.3906 Q2230.7313,27.9688 2229.9344,28.2969 Q2228.8563,28.75 2227.5594,28.75 Q2226.0438,28.75 2224.8406,28.125 Q2223.8563,27.625 2223.1688,26.5625 Q2222.4813,25.4844 2222.4813,24.2031 L2222.4813,23.0469 Q2222.4813,21.7188 2223.0906,20.5781 Q2223.7156,19.4219 2224.8094,18.8125 Q2225.9031,18.1875 2227.1375,18.1875 Q2227.8719,18.1875 2228.5125,18.3594 Q2229.1688,18.5156 2229.7156,18.875 Z " fill="#000000"/><text fill="#000000" font-family="sans-serif" font-size="14" lengthAdjust="spacing" textLength="282" x="2241.05" y="27.8535">codelink.backend.node_factory.NodeFactory</text><line style="stroke:#181818;stroke-width:0.5;" x1="2212.5" x2="2525.5" y1="39" y2="39"/><text fill="#000000" font-family="sans-serif" font-size="14" lengthAdjust="spacing" textLength="39" x="2217.5" y="55.6738">nodes</text><line style="stroke:#181818;stroke-width:0.5;" x1="2212.5" x2="2525.5" y1="62.6406" y2="62.6406"/><text fill="#000000" font-family="sans-serif" font-size="14" lengthAdjust="spacing" textLength="290" x="2217.5" y="79.3145">create_node(name: str) -&gt; Optional[NodeItem]</text><text fill="#000000" font-family="sans-serif" font-size="14" lengthAdjust="spacing" textLength="303" x="2217.5" y="94.9551">load_nodes(path: str, name_space: str) -&gt; None</text><text fill="#000000" font-family="sans-serif" font-size="14" lengthAdjust="spacing" textLength="96" x="2217.5" y="110.5957">reset() -&gt; None</text></g><!--class codelink.backend.node_item.NodeItem--><g id="elem_codelink.backend.node_item.NodeItem"><rect codeLine="27" fill="#F1F1F1" height="79.2813" id="codelink.backend.node_item.NodeItem" rx="2.5" ry="2.5" style="stroke:#181818;stroke-width:0.5;" width="275" x="527.5" y="187"/><ellipse cx="542.5" cy="203" fill="#ADD1B2" rx="11" ry="11" style="stroke:#181818;stroke-width:1.0;"/><path d="M545.2656,198.875 Q545.4219,198.6563 545.6094,198.5469 Q545.7969,198.4375 546.0156,198.4375 Q546.3906,198.4375 546.625,198.7031 Q546.8594,198.9531 546.8594,199.5625 L546.8594,201.0156 Q546.8594,201.625 546.625,201.8906 Q546.3906,202.1563 546.0156,202.1563 Q545.6719,202.1563 545.4688,201.9531 Q545.2656,201.7656 545.1563,201.25 Q545.1094,200.8906 544.9219,200.7031 Q544.5938,200.3281 543.9844,200.1094 Q543.375,199.8906 542.75,199.8906 Q541.9844,199.8906 541.3438,200.2188 Q540.7188,200.5469 540.2188,201.2969 Q539.7344,202.0469 539.7344,203.0781 L539.7344,204.1719 Q539.7344,205.4063 540.625,206.2344 Q541.5156,207.0469 543.1094,207.0469 Q544.0469,207.0469 544.7031,206.7969 Q545.0938,206.6406 545.5156,206.2031 Q545.7813,205.9375 545.9219,205.8594 Q546.0781,205.7813 546.2813,205.7813 Q546.6094,205.7813 546.8594,206.0469 Q547.125,206.2969 547.125,206.6406 Q547.125,206.9844 546.7813,207.3906 Q546.2813,207.9688 545.4844,208.2969 Q544.4063,208.75 543.1094,208.75 Q541.5938,208.75 540.3906,208.125 Q539.4063,207.625 538.7188,206.5625 Q538.0313,205.4844 538.0313,204.2031 L538.0313,203.0469 Q538.0313,201.7188 538.6406,200.5781 Q539.2656,199.4219 540.3594,198.8125 Q541.4531,198.1875 542.6875,198.1875 Q543.4219,198.1875 544.0625,198.3594 Q544.7188,198.5156 545.2656,198.875 Z " fill="#000000"/><text fill="#000000" font-family="sans-serif" font-size="14" lengthAdjust="spacing" textLength="243" x="556.5" y="207.8535">codelink.backend.node_item.NodeItem</text><line style="stroke:#181818;stroke-width:0.5;" x1="528.5" x2="801.5" y1="219" y2="219"/><text fill="#000000" font-family="sans-serif" font-size="14" lengthAdjust="spacing" textLength="23" x="533.5" y="235.6738">pos</text><line style="stroke:#181818;stroke-width:0.5;" x1="528.5" x2="801.5" y1="242.6406" y2="242.6406"/><text fill="#000000" font-family="sans-serif" font-size="14" lengthAdjust="spacing" textLength="157" x="533.5" y="259.3145">setup_children() -&gt; None</text></g><!--class codelink.backend.nodes.node_package_1.node_category.node_sub_category_1.test_node_item_1.TestNodeItem1--><g id="elem_codelink.backend.nodes.node_package_1.node_category.node_sub_category_1.test_node_item_1.TestNodeItem1"><rect codeLine="31" fill="#F1F1F1" height="79.2813" id="codelink.backend.nodes.node_package_1.node_category.node_sub_category_1.test_node_item_1.TestNodeItem1" rx="2.5" ry="2.5" style="stroke:#181818;stroke-width:0.5;" width="760" x="7" y="23"/><ellipse cx="22" cy="39" fill="#ADD1B2" rx="11" ry="11" style="stroke:#181818;stroke-width:1.0;"/><path d="M24.7656,34.875 Q24.9219,34.6563 25.1094,34.5469 Q25.2969,34.4375 25.5156,34.4375 Q25.8906,34.4375 26.125,34.7031 Q26.3594,34.9531 26.3594,35.5625 L26.3594,37.0156 Q26.3594,37.625 26.125,37.8906 Q25.8906,38.1563 25.5156,38.1563 Q25.1719,38.1563 24.9688,37.9531 Q24.7656,37.7656 24.6563,37.25 Q24.6094,36.8906 24.4219,36.7031 Q24.0938,36.3281 23.4844,36.1094 Q22.875,35.8906 22.25,35.8906 Q21.4844,35.8906 20.8438,36.2188 Q20.2188,36.5469 19.7188,37.2969 Q19.2344,38.0469 19.2344,39.0781 L19.2344,40.1719 Q19.2344,41.4063 20.125,42.2344 Q21.0156,43.0469 22.6094,43.0469 Q23.5469,43.0469 24.2031,42.7969 Q24.5938,42.6406 25.0156,42.2031 Q25.2813,41.9375 25.4219,41.8594 Q25.5781,41.7813 25.7813,41.7813 Q26.1094,41.7813 26.3594,42.0469 Q26.625,42.2969 26.625,42.6406 Q26.625,42.9844 26.2813,43.3906 Q25.7813,43.9688 24.9844,44.2969 Q23.9063,44.75 22.6094,44.75 Q21.0938,44.75 19.8906,44.125 Q18.9063,43.625 18.2188,42.5625 Q17.5313,41.4844 17.5313,40.2031 L17.5313,39.0469 Q17.5313,37.7188 18.1406,36.5781 Q18.7656,35.4219 19.8594,34.8125 Q20.9531,34.1875 22.1875,34.1875 Q22.9219,34.1875 23.5625,34.3594 Q24.2188,34.5156 24.7656,34.875 Z " fill="#000000"/><text fill="#000000" font-family="sans-serif" font-size="14" lengthAdjust="spacing" textLength="728" x="36" y="43.8535">codelink.backend.nodes.node_package_1.node_category.node_sub_category_1.test_node_item_1.TestNodeItem1</text><line style="stroke:#181818;stroke-width:0.5;" x1="8" x2="766" y1="55" y2="55"/><text fill="#000000" font-family="sans-serif" font-size="14" lengthAdjust="spacing" textLength="52" x="13" y="71.6738">pos : list</text><line style="stroke:#181818;stroke-width:0.5;" x1="8" x2="766" y1="78.6406" y2="78.6406"/><text fill="#000000" font-family="sans-serif" font-size="14" lengthAdjust="spacing" textLength="157" x="13" y="95.3145">setup_children() -&gt; None</text></g><!--class codelink.backend.properties.integer_property_item.IntegerPropertyItem--><g id="elem_codelink.backend.properties.integer_property_item.IntegerPropertyItem"><rect codeLine="35" fill="#F1F1F1" height="110.5625" id="codelink.backend.properties.integer_property_item.IntegerPropertyItem" rx="2.5" ry="2.5" style="stroke:#181818;stroke-width:0.5;" width="942" x="802" y="7"/><ellipse cx="1044.25" cy="23" fill="#ADD1B2" rx="11" ry="11" style="stroke:#181818;stroke-width:1.0;"/><path d="M1047.0156,18.875 Q1047.1719,18.6563 1047.3594,18.5469 Q1047.5469,18.4375 1047.7656,18.4375 Q1048.1406,18.4375 1048.375,18.7031 Q1048.6094,18.9531 1048.6094,19.5625 L1048.6094,21.0156 Q1048.6094,21.625 1048.375,21.8906 Q1048.1406,22.1563 1047.7656,22.1563 Q1047.4219,22.1563 1047.2188,21.9531 Q1047.0156,21.7656 1046.9063,21.25 Q1046.8594,20.8906 1046.6719,20.7031 Q1046.3438,20.3281 1045.7344,20.1094 Q1045.125,19.8906 1044.5,19.8906 Q1043.7344,19.8906 1043.0938,20.2188 Q1042.4688,20.5469 1041.9688,21.2969 Q1041.4844,22.0469 1041.4844,23.0781 L1041.4844,24.1719 Q1041.4844,25.4063 1042.375,26.2344 Q1043.2656,27.0469 1044.8594,27.0469 Q1045.7969,27.0469 1046.4531,26.7969 Q1046.8438,26.6406 1047.2656,26.2031 Q1047.5313,25.9375 1047.6719,25.8594 Q1047.8281,25.7813 1048.0313,25.7813 Q1048.3594,25.7813 1048.6094,26.0469 Q1048.875,26.2969 1048.875,26.6406 Q1048.875,26.9844 1048.5313,27.3906 Q1048.0313,27.9688 1047.2344,28.2969 Q1046.1563,28.75 1044.8594,28.75 Q1043.3438,28.75 1042.1406,28.125 Q1041.1563,27.625 1040.4688,26.5625 Q1039.7813,25.4844 1039.7813,24.2031 L1039.7813,23.0469 Q1039.7813,21.7188 1040.3906,20.5781 Q1041.0156,19.4219 1042.1094,18.8125 Q1043.2031,18.1875 1044.4375,18.1875 Q1045.1719,18.1875 1045.8125,18.3594 Q1046.4688,18.5156 1047.0156,18.875 Z " fill="#000000"/><text fill="#000000" font-family="sans-serif" font-size="14" lengthAdjust="spacing" textLength="449" x="1064.75" y="27.8535">codelink.backend.properties.integer_property_item.IntegerPropertyItem</text><line style="stroke:#181818;stroke-width:0.5;" x1="803" x2="1743" y1="39" y2="39"/><line style="stroke:#181818;stroke-width:0.5;" x1="803" x2="1743" y1="47" y2="47"/><text fill="#000000" font-family="sans-serif" font-size="14" lengthAdjust="spacing" textLength="78" x="808" y="63.6738">color() -&gt; str</text><text fill="#000000" font-family="sans-serif" font-size="14" lengthAdjust="spacing" textLength="930" x="808" y="79.3145">create_editor(parent: QtWidgets.QWidget, option: QtWidgets.QStyleOptionViewItem, index: QtCore.QModelIndex()) -&gt; Optional[QtWidgets.QWidget]</text><text fill="#000000" font-family="sans-serif" font-size="14" lengthAdjust="spacing" textLength="523" x="808" y="94.9551">set_editor_data(editor: QtWidgets.QWidget, index: QtCore.QModelIndex()) -&gt; None</text><text fill="#000000" font-family="sans-serif" font-size="14" lengthAdjust="spacing" textLength="750" x="808" y="110.5957">set_model_data(editor: QtWidgets.QWidget, model: QtCore.QAbstractItemModel, index: QtCore.QModelIndex()) -&gt; bool</text></g><!--class codelink.backend.property_item.PropertyItem--><g id="elem_codelink.backend.property_item.PropertyItem"><rect codeLine="41" fill="#F1F1F1" height="63.6406" id="codelink.backend.property_item.PropertyItem" rx="2.5" ry="2.5" style="stroke:#181818;stroke-width:0.5;" width="317" x="1114.5" y="194.5"/><ellipse cx="1129.5" cy="210.5" fill="#ADD1B2" rx="11" ry="11" style="stroke:#181818;stroke-width:1.0;"/><path d="M1132.2656,206.375 Q1132.4219,206.1563 1132.6094,206.0469 Q1132.7969,205.9375 1133.0156,205.9375 Q1133.3906,205.9375 1133.625,206.2031 Q1133.8594,206.4531 1133.8594,207.0625 L1133.8594,208.5156 Q1133.8594,209.125 1133.625,209.3906 Q1133.3906,209.6563 1133.0156,209.6563 Q1132.6719,209.6563 1132.4688,209.4531 Q1132.2656,209.2656 1132.1563,208.75 Q1132.1094,208.3906 1131.9219,208.2031 Q1131.5938,207.8281 1130.9844,207.6094 Q1130.375,207.3906 1129.75,207.3906 Q1128.9844,207.3906 1128.3438,207.7188 Q1127.7188,208.0469 1127.2188,208.7969 Q1126.7344,209.5469 1126.7344,210.5781 L1126.7344,211.6719 Q1126.7344,212.9063 1127.625,213.7344 Q1128.5156,214.5469 1130.1094,214.5469 Q1131.0469,214.5469 1131.7031,214.2969 Q1132.0938,214.1406 1132.5156,213.7031 Q1132.7813,213.4375 1132.9219,213.3594 Q1133.0781,213.2813 1133.2813,213.2813 Q1133.6094,213.2813 1133.8594,213.5469 Q1134.125,213.7969 1134.125,214.1406 Q1134.125,214.4844 1133.7813,214.8906 Q1133.2813,215.4688 1132.4844,215.7969 Q1131.4063,216.25 1130.1094,216.25 Q1128.5938,216.25 1127.3906,215.625 Q1126.4063,215.125 1125.7188,214.0625 Q1125.0313,212.9844 1125.0313,211.7031 L1125.0313,210.5469 Q1125.0313,209.2188 1125.6406,208.0781 Q1126.2656,206.9219 1127.3594,206.3125 Q1128.4531,205.6875 1129.6875,205.6875 Q1130.4219,205.6875 1131.0625,205.8594 Q1131.7188,206.0156 1132.2656,206.375 Z " fill="#000000"/><text fill="#000000" font-family="sans-serif" font-size="14" lengthAdjust="spacing" textLength="285" x="1143.5" y="215.3535">codelink.backend.property_item.PropertyItem</text><line style="stroke:#181818;stroke-width:0.5;" x1="1115.5" x2="1430.5" y1="226.5" y2="226.5"/><line style="stroke:#181818;stroke-width:0.5;" x1="1115.5" x2="1430.5" y1="234.5" y2="234.5"/><text fill="#000000" font-family="sans-serif" font-size="14" lengthAdjust="spacing" textLength="78" x="1120.5" y="251.1738">color() -&gt; str</text></g><!--class codelink.backend.proxy_models.ColumnSwapProxyModel--><g id="elem_codelink.backend.proxy_models.ColumnSwapProxyModel"><rect codeLine="44" fill="#F1F1F1" height="79.2813" id="codelink.backend.proxy_models.ColumnSwapProxyModel" rx="2.5" ry="2.5" style="stroke:#181818;stroke-width:0.5;" width="504" x="2562" y="23"/><ellipse cx="2629.75" cy="39" fill="#ADD1B2" rx="11" ry="11" style="stroke:#181818;stroke-width:1.0;"/><path d="M2632.5156,34.875 Q2632.6719,34.6563 2632.8594,34.5469 Q2633.0469,34.4375 2633.2656,34.4375 Q2633.6406,34.4375 2633.875,34.7031 Q2634.1094,34.9531 2634.1094,35.5625 L2634.1094,37.0156 Q2634.1094,37.625 2633.875,37.8906 Q2633.6406,38.1563 2633.2656,38.1563 Q2632.9219,38.1563 2632.7188,37.9531 Q2632.5156,37.7656 2632.4063,37.25 Q2632.3594,36.8906 2632.1719,36.7031 Q2631.8438,36.3281 2631.2344,36.1094 Q2630.625,35.8906 2630,35.8906 Q2629.2344,35.8906 2628.5938,36.2188 Q2627.9688,36.5469 2627.4688,37.2969 Q2626.9844,38.0469 2626.9844,39.0781 L2626.9844,40.1719 Q2626.9844,41.4063 2627.875,42.2344 Q2628.7656,43.0469 2630.3594,43.0469 Q2631.2969,43.0469 2631.9531,42.7969 Q2632.3438,42.6406 2632.7656,42.2031 Q2633.0313,41.9375 2633.1719,41.8594 Q2633.3281,41.7813 2633.5313,41.7813 Q2633.8594,41.7813 2634.1094,42.0469 Q2634.375,42.2969 2634.375,42.6406 Q2634.375,42.9844 2634.0313,43.3906 Q2633.5313,43.9688 2632.7344,44.2969 Q2631.6563,44.75 2630.3594,44.75 Q2628.8438,44.75 2627.6406,44.125 Q2626.6563,43.625 2625.9688,42.5625 Q2625.2813,41.4844 2625.2813,40.2031 L2625.2813,39.0469 Q2625.2813,37.7188 2625.8906,36.5781 Q2626.5156,35.4219 2627.6094,34.8125 Q2628.7031,34.1875 2629.9375,34.1875 Q2630.6719,34.1875 2631.3125,34.3594 Q2631.9688,34.5156 2632.5156,34.875 Z " fill="#000000"/><text fill="#000000" font-family="sans-serif" font-size="14" lengthAdjust="spacing" textLength="360" x="2650.25" y="43.8535">codelink.backend.proxy_models.ColumnSwapProxyModel</text><line style="stroke:#181818;stroke-width:0.5;" x1="2563" x2="3065" y1="55" y2="55"/><line style="stroke:#181818;stroke-width:0.5;" x1="2563" x2="3065" y1="63" y2="63"/><text fill="#000000" font-family="sans-serif" font-size="14" lengthAdjust="spacing" textLength="492" x="2568" y="79.6738">mapFromSource(source_index: QtCore.QModelIndex) -&gt; QtCore.QModelIndex</text><text fill="#000000" font-family="sans-serif" font-size="14" lengthAdjust="spacing" textLength="467" x="2568" y="95.3145">mapToSource(proxy_index: QtCore.QModelIndex) -&gt; QtCore.QModelIndex</text></g><!--class codelink.backend.proxy_models.Level2ProxyModel--><g id="elem_codelink.backend.proxy_models.Level2ProxyModel"><rect codeLine="48" fill="#F1F1F1" height="94.9219" id="codelink.backend.proxy_models.Level2ProxyModel" rx="2.5" ry="2.5" style="stroke:#181818;stroke-width:0.5;" width="510" x="3101" y="15"/><ellipse cx="3191.75" cy="31" fill="#ADD1B2" rx="11" ry="11" style="stroke:#181818;stroke-width:1.0;"/><path d="M3194.5156,26.875 Q3194.6719,26.6563 3194.8594,26.5469 Q3195.0469,26.4375 3195.2656,26.4375 Q3195.6406,26.4375 3195.875,26.7031 Q3196.1094,26.9531 3196.1094,27.5625 L3196.1094,29.0156 Q3196.1094,29.625 3195.875,29.8906 Q3195.6406,30.1563 3195.2656,30.1563 Q3194.9219,30.1563 3194.7188,29.9531 Q3194.5156,29.7656 3194.4063,29.25 Q3194.3594,28.8906 3194.1719,28.7031 Q3193.8438,28.3281 3193.2344,28.1094 Q3192.625,27.8906 3192,27.8906 Q3191.2344,27.8906 3190.5938,28.2188 Q3189.9688,28.5469 3189.4688,29.2969 Q3188.9844,30.0469 3188.9844,31.0781 L3188.9844,32.1719 Q3188.9844,33.4063 3189.875,34.2344 Q3190.7656,35.0469 3192.3594,35.0469 Q3193.2969,35.0469 3193.9531,34.7969 Q3194.3438,34.6406 3194.7656,34.2031 Q3195.0313,33.9375 3195.1719,33.8594 Q3195.3281,33.7813 3195.5313,33.7813 Q3195.8594,33.7813 3196.1094,34.0469 Q3196.375,34.2969 3196.375,34.6406 Q3196.375,34.9844 3196.0313,35.3906 Q3195.5313,35.9688 3194.7344,36.2969 Q3193.6563,36.75 3192.3594,36.75 Q3190.8438,36.75 3189.6406,36.125 Q3188.6563,35.625 3187.9688,34.5625 Q3187.2813,33.4844 3187.2813,32.2031 L3187.2813,31.0469 Q3187.2813,29.7188 3187.8906,28.5781 Q3188.5156,27.4219 3189.6094,26.8125 Q3190.7031,26.1875 3191.9375,26.1875 Q3192.6719,26.1875 3193.3125,26.3594 Q3193.9688,26.5156 3194.5156,26.875 Z " fill="#000000"/><text fill="#000000" font-family="sans-serif" font-size="14" lengthAdjust="spacing" textLength="320" x="3212.25" y="35.8535">codelink.backend.proxy_models.Level2ProxyModel</text><line style="stroke:#181818;stroke-width:0.5;" x1="3102" x2="3610" y1="47" y2="47"/><line style="stroke:#181818;stroke-width:0.5;" x1="3102" x2="3610" y1="55" y2="55"/><text fill="#000000" font-family="sans-serif" font-size="14" lengthAdjust="spacing" textLength="498" x="3107" y="71.6738">filterAcceptsRow(source_row: int, source_parent: QtCore.QModelIndex) -&gt; bool</text><text fill="#000000" font-family="sans-serif" font-size="14" lengthAdjust="spacing" textLength="492" x="3107" y="87.3145">mapFromSource(source_index: QtCore.QModelIndex) -&gt; QtCore.QModelIndex</text><text fill="#000000" font-family="sans-serif" font-size="14" lengthAdjust="spacing" textLength="467" x="3107" y="102.9551">mapToSource(proxy_index: QtCore.QModelIndex) -&gt; QtCore.QModelIndex</text></g><!--class codelink.backend.proxy_models.Level4ProxyModel--><g id="elem_codelink.backend.proxy_models.Level4ProxyModel"><rect codeLine="53" fill="#F1F1F1" height="94.9219" id="codelink.backend.proxy_models.Level4ProxyModel" rx="2.5" ry="2.5" style="stroke:#181818;stroke-width:0.5;" width="510" x="2559" y="179"/><ellipse cx="2649.75" cy="195" fill="#ADD1B2" rx="11" ry="11" style="stroke:#181818;stroke-width:1.0;"/><path d="M2652.5156,190.875 Q2652.6719,190.6563 2652.8594,190.5469 Q2653.0469,190.4375 2653.2656,190.4375 Q2653.6406,190.4375 2653.875,190.7031 Q2654.1094,190.9531 2654.1094,191.5625 L2654.1094,193.0156 Q2654.1094,193.625 2653.875,193.8906 Q2653.6406,194.1563 2653.2656,194.1563 Q2652.9219,194.1563 2652.7188,193.9531 Q2652.5156,193.7656 2652.4063,193.25 Q2652.3594,192.8906 2652.1719,192.7031 Q2651.8438,192.3281 2651.2344,192.1094 Q2650.625,191.8906 2650,191.8906 Q2649.2344,191.8906 2648.5938,192.2188 Q2647.9688,192.5469 2647.4688,193.2969 Q2646.9844,194.0469 2646.9844,195.0781 L2646.9844,196.1719 Q2646.9844,197.4063 2647.875,198.2344 Q2648.7656,199.0469 2650.3594,199.0469 Q2651.2969,199.0469 2651.9531,198.7969 Q2652.3438,198.6406 2652.7656,198.2031 Q2653.0313,197.9375 2653.1719,197.8594 Q2653.3281,197.7813 2653.5313,197.7813 Q2653.8594,197.7813 2654.1094,198.0469 Q2654.375,198.2969 2654.375,198.6406 Q2654.375,198.9844 2654.0313,199.3906 Q2653.5313,199.9688 2652.7344,200.2969 Q2651.6563,200.75 2650.3594,200.75 Q2648.8438,200.75 2647.6406,200.125 Q2646.6563,199.625 2645.9688,198.5625 Q2645.2813,197.4844 2645.2813,196.2031 L2645.2813,195.0469 Q2645.2813,193.7188 2645.8906,192.5781 Q2646.5156,191.4219 2647.6094,190.8125 Q2648.7031,190.1875 2649.9375,190.1875 Q2650.6719,190.1875 2651.3125,190.3594 Q2651.9688,190.5156 2652.5156,190.875 Z " fill="#000000"/><text fill="#000000" font-family="sans-serif" font-size="14" lengthAdjust="spacing" textLength="320" x="2670.25" y="199.8535">codelink.backend.proxy_models.Level4ProxyModel</text><line style="stroke:#181818;stroke-width:0.5;" x1="2560" x2="3068" y1="211" y2="211"/><line style="stroke:#181818;stroke-width:0.5;" x1="2560" x2="3068" y1="219" y2="219"/><text fill="#000000" font-family="sans-serif" font-size="14" lengthAdjust="spacing" textLength="498" x="2565" y="235.6738">filterAcceptsRow(source_row: int, source_parent: QtCore.QModelIndex) -&gt; bool</text><text fill="#000000" font-family="sans-serif" font-size="14" lengthAdjust="spacing" textLength="492" x="2565" y="251.3145">mapFromSource(source_index: QtCore.QModelIndex) -&gt; QtCore.QModelIndex</text><text fill="#000000" font-family="sans-serif" font-size="14" lengthAdjust="spacing" textLength="467" x="2565" y="266.9551">mapToSource(proxy_index: QtCore.QModelIndex) -&gt; QtCore.QModelIndex</text></g><!--class codelink.backend.root_item.RootItem--><g id="elem_codelink.backend.root_item.RootItem"><rect codeLine="58" fill="#F1F1F1" height="48" id="codelink.backend.root_item.RootItem" rx="2.5" ry="2.5" style="stroke:#181818;stroke-width:0.5;" width="265" x="1779.5" y="389.5"/><ellipse cx="1794.5" cy="405.5" fill="#ADD1B2" rx="11" ry="11" style="stroke:#181818;stroke-width:1.0;"/><path d="M1797.2656,401.375 Q1797.4219,401.1563 1797.6094,401.0469 Q1797.7969,400.9375 1798.0156,400.9375 Q1798.3906,400.9375 1798.625,401.2031 Q1798.8594,401.4531 1798.8594,402.0625 L1798.8594,403.5156 Q1798.8594,404.125 1798.625,404.3906 Q1798.3906,404.6563 1798.0156,404.6563 Q1797.6719,404.6563 1797.4688,404.4531 Q1797.2656,404.2656 1797.1563,403.75 Q1797.1094,403.3906 1796.9219,403.2031 Q1796.5938,402.8281 1795.9844,402.6094 Q1795.375,402.3906 1794.75,402.3906 Q1793.9844,402.3906 1793.3438,402.7188 Q1792.7188,403.0469 1792.2188,403.7969 Q1791.7344,404.5469 1791.7344,405.5781 L1791.7344,406.6719 Q1791.7344,407.9063 1792.625,408.7344 Q1793.5156,409.5469 1795.1094,409.5469 Q1796.0469,409.5469 1796.7031,409.2969 Q1797.0938,409.1406 1797.5156,408.7031 Q1797.7813,408.4375 1797.9219,408.3594 Q1798.0781,408.2813 1798.2813,408.2813 Q1798.6094,408.2813 1798.8594,408.5469 Q1799.125,408.7969 1799.125,409.1406 Q1799.125,409.4844 1798.7813,409.8906 Q1798.2813,410.4688 1797.4844,410.7969 Q1796.4063,411.25 1795.1094,411.25 Q1793.5938,411.25 1792.3906,410.625 Q1791.4063,410.125 1790.7188,409.0625 Q1790.0313,407.9844 1790.0313,406.7031 L1790.0313,405.5469 Q1790.0313,404.2188 1790.6406,403.0781 Q1791.2656,401.9219 1792.3594,401.3125 Q1793.4531,400.6875 1794.6875,400.6875 Q1795.4219,400.6875 1796.0625,400.8594 Q1796.7188,401.0156 1797.2656,401.375 Z " fill="#000000"/><text fill="#000000" font-family="sans-serif" font-size="14" lengthAdjust="spacing" textLength="233" x="1808.5" y="410.3535">codelink.backend.root_item.RootItem</text><line style="stroke:#181818;stroke-width:0.5;" x1="1780.5" x2="2043.5" y1="421.5" y2="421.5"/><line style="stroke:#181818;stroke-width:0.5;" x1="1780.5" x2="2043.5" y1="429.5" y2="429.5"/></g><!--class codelink.backend.seperator_item.SeperatorItem--><g id="elem_codelink.backend.seperator_item.SeperatorItem"><rect codeLine="60" fill="#F1F1F1" height="48" id="codelink.backend.seperator_item.SeperatorItem" rx="2.5" ry="2.5" style="stroke:#181818;stroke-width:0.5;" width="334" x="1645" y="202.5"/><ellipse cx="1660" cy="218.5" fill="#ADD1B2" rx="11" ry="11" style="stroke:#181818;stroke-width:1.0;"/><path d="M1662.7656,214.375 Q1662.9219,214.1563 1663.1094,214.0469 Q1663.2969,213.9375 1663.5156,213.9375 Q1663.8906,213.9375 1664.125,214.2031 Q1664.3594,214.4531 1664.3594,215.0625 L1664.3594,216.5156 Q1664.3594,217.125 1664.125,217.3906 Q1663.8906,217.6563 1663.5156,217.6563 Q1663.1719,217.6563 1662.9688,217.4531 Q1662.7656,217.2656 1662.6563,216.75 Q1662.6094,216.3906 1662.4219,216.2031 Q1662.0938,215.8281 1661.4844,215.6094 Q1660.875,215.3906 1660.25,215.3906 Q1659.4844,215.3906 1658.8438,215.7188 Q1658.2188,216.0469 1657.7188,216.7969 Q1657.2344,217.5469 1657.2344,218.5781 L1657.2344,219.6719 Q1657.2344,220.9063 1658.125,221.7344 Q1659.0156,222.5469 1660.6094,222.5469 Q1661.5469,222.5469 1662.2031,222.2969 Q1662.5938,222.1406 1663.0156,221.7031 Q1663.2813,221.4375 1663.4219,221.3594 Q1663.5781,221.2813 1663.7813,221.2813 Q1664.1094,221.2813 1664.3594,221.5469 Q1664.625,221.7969 1664.625,222.1406 Q1664.625,222.4844 1664.2813,222.8906 Q1663.7813,223.4688 1662.9844,223.7969 Q1661.9063,224.25 1660.6094,224.25 Q1659.0938,224.25 1657.8906,223.625 Q1656.9063,223.125 1656.2188,222.0625 Q1655.5313,220.9844 1655.5313,219.7031 L1655.5313,218.5469 Q1655.5313,217.2188 1656.1406,216.0781 Q1656.7656,214.9219 1657.8594,214.3125 Q1658.9531,213.6875 1660.1875,213.6875 Q1660.9219,213.6875 1661.5625,213.8594 Q1662.2188,214.0156 1662.7656,214.375 Z " fill="#000000"/><text fill="#000000" font-family="sans-serif" font-size="14" lengthAdjust="spacing" textLength="302" x="1674" y="223.3535">codelink.backend.seperator_item.SeperatorItem</text><line style="stroke:#181818;stroke-width:0.5;" x1="1646" x2="1978" y1="234.5" y2="234.5"/><line style="stroke:#181818;stroke-width:0.5;" x1="1646" x2="1978" y1="242.5" y2="242.5"/></g><!--class codelink.backend.tree_item.TreeItem--><g id="elem_codelink.backend.tree_item.TreeItem"><rect codeLine="62" fill="#F1F1F1" height="188.7656" id="codelink.backend.tree_item.TreeItem" rx="2.5" ry="2.5" style="stroke:#181818;stroke-width:0.5;" width="288" x="1129" y="708.5"/><ellipse cx="1154.35" cy="724.5" fill="#ADD1B2" rx="11" ry="11" style="stroke:#181818;stroke-width:1.0;"/><path d="M1157.1156,720.375 Q1157.2719,720.1563 1157.4594,720.0469 Q1157.6469,719.9375 1157.8656,719.9375 Q1158.2406,719.9375 1158.475,720.2031 Q1158.7094,720.4531 1158.7094,721.0625 L1158.7094,722.5156 Q1158.7094,723.125 1158.475,723.3906 Q1158.2406,723.6563 1157.8656,723.6563 Q1157.5219,723.6563 1157.3188,723.4531 Q1157.1156,723.2656 1157.0063,722.75 Q1156.9594,722.3906 1156.7719,722.2031 Q1156.4438,721.8281 1155.8344,721.6094 Q1155.225,721.3906 1154.6,721.3906 Q1153.8344,721.3906 1153.1938,721.7188 Q1152.5688,722.0469 1152.0688,722.7969 Q1151.5844,723.5469 1151.5844,724.5781 L1151.5844,725.6719 Q1151.5844,726.9063 1152.475,727.7344 Q1153.3656,728.5469 1154.9594,728.5469 Q1155.8969,728.5469 1156.5531,728.2969 Q1156.9438,728.1406 1157.3656,727.7031 Q1157.6313,727.4375 1157.7719,727.3594 Q1157.9281,727.2813 1158.1313,727.2813 Q1158.4594,727.2813 1158.7094,727.5469 Q1158.975,727.7969 1158.975,728.1406 Q1158.975,728.4844 1158.6313,728.8906 Q1158.1313,729.4688 1157.3344,729.7969 Q1156.2563,730.25 1154.9594,730.25 Q1153.4438,730.25 1152.2406,729.625 Q1151.2563,729.125 1150.5688,728.0625 Q1149.8813,726.9844 1149.8813,725.7031 L1149.8813,724.5469 Q1149.8813,723.2188 1150.4906,722.0781 Q1151.1156,720.9219 1152.2094,720.3125 Q1153.3031,719.6875 1154.5375,719.6875 Q1155.2719,719.6875 1155.9125,719.8594 Q1156.5688,720.0156 1157.1156,720.375 Z " fill="#000000"/><text fill="#000000" font-family="sans-serif" font-size="14" lengthAdjust="spacing" textLength="233" x="1170.65" y="729.3535">codelink.backend.tree_item.TreeItem</text><line style="stroke:#181818;stroke-width:0.5;" x1="1130" x2="1416" y1="740.5" y2="740.5"/><text fill="#000000" font-family="sans-serif" font-size="14" lengthAdjust="spacing" textLength="50" x="1135" y="757.1738">children</text><text fill="#000000" font-family="sans-serif" font-size="14" lengthAdjust="spacing" textLength="41" x="1135" y="772.8145">parent</text><text fill="#000000" font-family="sans-serif" font-size="14" lengthAdjust="spacing" textLength="27" x="1135" y="788.4551">uuid</text><line style="stroke:#181818;stroke-width:0.5;" x1="1130" x2="1416" y1="795.4219" y2="795.4219"/><text fill="#000000" font-family="sans-serif" font-size="14" lengthAdjust="spacing" textLength="236" x="1135" y="812.0957">append_child(child: TreeItem) -&gt; bool</text><text fill="#000000" font-family="sans-serif" font-size="14" lengthAdjust="spacing" textLength="222" x="1135" y="827.7363">child(row: int) -&gt; Optional[TreeItem]</text><text fill="#000000" font-family="sans-serif" font-size="14" lengthAdjust="spacing" textLength="276" x="1135" y="843.377">insert_child(row: int, child: TreeItem) -&gt; bool</text><text fill="#000000" font-family="sans-serif" font-size="14" lengthAdjust="spacing" textLength="187" x="1135" y="859.0176">remove_child(row: int) -&gt; bool</text><text fill="#000000" font-family="sans-serif" font-size="14" lengthAdjust="spacing" textLength="68" x="1135" y="874.6582">row() -&gt; int</text><text fill="#000000" font-family="sans-serif" font-size="14" font-style="italic" lengthAdjust="spacing" textLength="158" x="1135" y="890.2988">setup_children() -&gt; None</text></g><!--class codelink.backend.tree_model.TreeModel--><g id="elem_codelink.backend.tree_model.TreeModel"><rect codeLine="73" fill="#F1F1F1" height="470.2969" id="codelink.backend.tree_model.TreeModel" rx="2.5" ry="2.5" style="stroke:#181818;stroke-width:0.5;" width="570" x="1867" y="568"/><ellipse cx="2019.25" cy="584" fill="#ADD1B2" rx="11" ry="11" style="stroke:#181818;stroke-width:1.0;"/><path d="M2022.0156,579.875 Q2022.1719,579.6563 2022.3594,579.5469 Q2022.5469,579.4375 2022.7656,579.4375 Q2023.1406,579.4375 2023.375,579.7031 Q2023.6094,579.9531 2023.6094,580.5625 L2023.6094,582.0156 Q2023.6094,582.625 2023.375,582.8906 Q2023.1406,583.1563 2022.7656,583.1563 Q2022.4219,583.1563 2022.2188,582.9531 Q2022.0156,582.7656 2021.9063,582.25 Q2021.8594,581.8906 2021.6719,581.7031 Q2021.3438,581.3281 2020.7344,581.1094 Q2020.125,580.8906 2019.5,580.8906 Q2018.7344,580.8906 2018.0938,581.2188 Q2017.4688,581.5469 2016.9688,582.2969 Q2016.4844,583.0469 2016.4844,584.0781 L2016.4844,585.1719 Q2016.4844,586.4063 2017.375,587.2344 Q2018.2656,588.0469 2019.8594,588.0469 Q2020.7969,588.0469 2021.4531,587.7969 Q2021.8438,587.6406 2022.2656,587.2031 Q2022.5313,586.9375 2022.6719,586.8594 Q2022.8281,586.7813 2023.0313,586.7813 Q2023.3594,586.7813 2023.6094,587.0469 Q2023.875,587.2969 2023.875,587.6406 Q2023.875,587.9844 2023.5313,588.3906 Q2023.0313,588.9688 2022.2344,589.2969 Q2021.1563,589.75 2019.8594,589.75 Q2018.3438,589.75 2017.1406,589.125 Q2016.1563,588.625 2015.4688,587.5625 Q2014.7813,586.4844 2014.7813,585.2031 L2014.7813,584.0469 Q2014.7813,582.7188 2015.3906,581.5781 Q2016.0156,580.4219 2017.1094,579.8125 Q2018.2031,579.1875 2019.4375,579.1875 Q2020.1719,579.1875 2020.8125,579.3594 Q2021.4688,579.5156 2022.0156,579.875 Z " fill="#000000"/><text fill="#000000" font-family="sans-serif" font-size="14" lengthAdjust="spacing" textLength="257" x="2039.75" y="588.8535">codelink.backend.tree_model.TreeModel</text><line style="stroke:#181818;stroke-width:0.5;" x1="1868" x2="2436" y1="600" y2="600"/><text fill="#000000" font-family="sans-serif" font-size="14" lengthAdjust="spacing" textLength="127" x="1873" y="616.6738">begin_remove_rows</text><text fill="#000000" font-family="sans-serif" font-size="14" lengthAdjust="spacing" textLength="80" x="1873" y="632.3145">edges_index</text><text fill="#000000" font-family="sans-serif" font-size="14" lengthAdjust="spacing" textLength="84" x="1873" y="647.9551">frames_index</text><text fill="#000000" font-family="sans-serif" font-size="14" lengthAdjust="spacing" textLength="80" x="1873" y="663.5957">nodes_index</text><text fill="#000000" font-family="sans-serif" font-size="14" lengthAdjust="spacing" textLength="59" x="1873" y="679.2363">root_item</text><text fill="#000000" font-family="sans-serif" font-size="14" lengthAdjust="spacing" textLength="73" x="1873" y="694.877">undo_stack</text><line style="stroke:#181818;stroke-width:0.5;" x1="1868" x2="2436" y1="701.8438" y2="701.8438"/><text fill="#000000" font-family="sans-serif" font-size="14" lengthAdjust="spacing" textLength="417" x="1873" y="718.5176">append_item(tree_item: TreeItem, parent) -&gt; QtCore.QModelIndex</text><text fill="#000000" font-family="sans-serif" font-size="14" lengthAdjust="spacing" textLength="384" x="1873" y="734.1582">append_node(node_item: NodeItem) -&gt; QtCore.QModelIndex</text><text fill="#000000" font-family="sans-serif" font-size="14" lengthAdjust="spacing" textLength="310" x="1873" y="749.7988">columnCount(parent: QtCore.QModelIndex) -&gt; int</text><text fill="#000000" font-family="sans-serif" font-size="14" lengthAdjust="spacing" textLength="311" x="1873" y="765.4395">data(index: QtCore.QModelIndex, role: int) -&gt; Any</text><text fill="#000000" font-family="sans-serif" font-size="14" lengthAdjust="spacing" textLength="364" x="1873" y="781.0801">flags(index: QtCore.QModelIndex) -&gt; QtCore.Qt.ItemFlags</text><text fill="#000000" font-family="sans-serif" font-size="14" lengthAdjust="spacing" textLength="262" x="1873" y="796.7207">from_dict(state: dict[str, Any]) -&gt; TreeItem</text><text fill="#000000" font-family="sans-serif" font-size="14" lengthAdjust="spacing" textLength="315" x="1873" y="812.3613">hasChildren(parent: QtCore.QModelIndex) -&gt; bool</text><text fill="#000000" font-family="sans-serif" font-size="14" lengthAdjust="spacing" textLength="240" x="1873" y="828.002">has_parent_recursively(index, parent)</text><text fill="#000000" font-family="sans-serif" font-size="14" lengthAdjust="spacing" textLength="452" x="1873" y="843.6426">headerData(section: int, orientation: QtCore.Qt.Orientation, role) -&gt; Any</text><text fill="#000000" font-family="sans-serif" font-size="14" lengthAdjust="spacing" textLength="506" x="1873" y="859.2832">index(row: int, column: int, parent: QtCore.QModelIndex) -&gt; QtCore.QModelIndex</text><text fill="#000000" font-family="sans-serif" font-size="14" lengthAdjust="spacing" textLength="558" x="1873" y="874.9238">index_from_key(key: str, parent: QtCore.QModelIndex) -&gt; Optional[QtCore.QModelIndex]</text><text fill="#000000" font-family="sans-serif" font-size="14" lengthAdjust="spacing" textLength="455" x="1873" y="890.5645">index_from_uuid(uuid: str, column: int) -&gt; Optional[QtCore.QModelIndex]</text><text fill="#000000" font-family="sans-serif" font-size="14" lengthAdjust="spacing" textLength="457" x="1873" y="906.2051">insert_item(row: int, tree_item: TreeItem, parent) -&gt; QtCore.QModelIndex</text><text fill="#000000" font-family="sans-serif" font-size="14" lengthAdjust="spacing" textLength="363" x="1873" y="921.8457">item_from_index(index: QtCore.QModelIndex) -&gt; TreeItem</text><text fill="#000000" font-family="sans-serif" font-size="14" lengthAdjust="spacing" textLength="296" x="1873" y="937.4863">item_from_uuid(uuid: str) -&gt; Optional[TreeItem]</text><text fill="#000000" font-family="sans-serif" font-size="14" lengthAdjust="spacing" textLength="377" x="1873" y="953.127">parent(index: QtCore.QModelIndex) -&gt; QtCore.QModelIndex</text><text fill="#000000" font-family="sans-serif" font-size="14" lengthAdjust="spacing" textLength="226" x="1873" y="968.7676">removeRow(row: int, parent) -&gt; bool</text><text fill="#000000" font-family="sans-serif" font-size="14" lengthAdjust="spacing" textLength="233" x="1873" y="984.4082">remove_item(row: int, parent) -&gt; bool</text><text fill="#000000" font-family="sans-serif" font-size="14" lengthAdjust="spacing" textLength="147" x="1873" y="1000.0488">rowCount(parent) -&gt; int</text><text fill="#000000" font-family="sans-serif" font-size="14" lengthAdjust="spacing" textLength="409" x="1873" y="1015.6895">setData(index: QtCore.QModelIndex, value: Any, role: int) -&gt; bool</text><text fill="#000000" font-family="sans-serif" font-size="14" lengthAdjust="spacing" textLength="373" x="1873" y="1031.3301">to_dict(parent_index: QtCore.QModelIndex) -&gt; dict[str, Any]</text></g><!--class codelink.backend.tree_seperator_item.TreeSeperatorItem--><g id="elem_codelink.backend.tree_seperator_item.TreeSeperatorItem"><rect codeLine="102" fill="#F1F1F1" height="48" id="codelink.backend.tree_seperator_item.TreeSeperatorItem" rx="2.5" ry="2.5" style="stroke:#181818;stroke-width:0.5;" width="397" x="1779.5" y="38.5"/><ellipse cx="1794.5" cy="54.5" fill="#ADD1B2" rx="11" ry="11" style="stroke:#181818;stroke-width:1.0;"/><path d="M1797.2656,50.375 Q1797.4219,50.1563 1797.6094,50.0469 Q1797.7969,49.9375 1798.0156,49.9375 Q1798.3906,49.9375 1798.625,50.2031 Q1798.8594,50.4531 1798.8594,51.0625 L1798.8594,52.5156 Q1798.8594,53.125 1798.625,53.3906 Q1798.3906,53.6563 1798.0156,53.6563 Q1797.6719,53.6563 1797.4688,53.4531 Q1797.2656,53.2656 1797.1563,52.75 Q1797.1094,52.3906 1796.9219,52.2031 Q1796.5938,51.8281 1795.9844,51.6094 Q1795.375,51.3906 1794.75,51.3906 Q1793.9844,51.3906 1793.3438,51.7188 Q1792.7188,52.0469 1792.2188,52.7969 Q1791.7344,53.5469 1791.7344,54.5781 L1791.7344,55.6719 Q1791.7344,56.9063 1792.625,57.7344 Q1793.5156,58.5469 1795.1094,58.5469 Q1796.0469,58.5469 1796.7031,58.2969 Q1797.0938,58.1406 1797.5156,57.7031 Q1797.7813,57.4375 1797.9219,57.3594 Q1798.0781,57.2813 1798.2813,57.2813 Q1798.6094,57.2813 1798.8594,57.5469 Q1799.125,57.7969 1799.125,58.1406 Q1799.125,58.4844 1798.7813,58.8906 Q1798.2813,59.4688 1797.4844,59.7969 Q1796.4063,60.25 1795.1094,60.25 Q1793.5938,60.25 1792.3906,59.625 Q1791.4063,59.125 1790.7188,58.0625 Q1790.0313,56.9844 1790.0313,55.7031 L1790.0313,54.5469 Q1790.0313,53.2188 1790.6406,52.0781 Q1791.2656,50.9219 1792.3594,50.3125 Q1793.4531,49.6875 1794.6875,49.6875 Q1795.4219,49.6875 1796.0625,49.8594 Q1796.7188,50.0156 1797.2656,50.375 Z " fill="#000000"/><text fill="#000000" font-family="sans-serif" font-size="14" lengthAdjust="spacing" textLength="365" x="1808.5" y="59.3535">codelink.backend.tree_seperator_item.TreeSeperatorItem</text><line style="stroke:#181818;stroke-width:0.5;" x1="1780.5" x2="2175.5" y1="70.5" y2="70.5"/><line style="stroke:#181818;stroke-width:0.5;" x1="1780.5" x2="2175.5" y1="78.5" y2="78.5"/></g><!--link codelink.backend.base_item.BaseItem to codelink.backend.tree_item.TreeItem--><g id="link_codelink.backend.base_item.BaseItem_codelink.backend.tree_item.TreeItem"><path codeLine="104" d="M1273,492.45 C1273,554.77 1273,624.35 1273,690.45 " fill="none" id="codelink.backend.base_item.BaseItem-to-codelink.backend.tree_item.TreeItem" style="stroke:#181818;stroke-width:1.0;"/><polygon fill="none" points="1273,708.45,1279,690.45,1267,690.45,1273,708.45" style="stroke:#181818;stroke-width:1.0;"/></g><!--link codelink.backend.document_model.DocumentModel to codelink.backend.tree_model.TreeModel--><g id="link_codelink.backend.document_model.DocumentModel_codelink.backend.tree_model.TreeModel"><path codeLine="105" d="M2244.76,469.2 C2237.2,496.32 2232.3336,513.7811 2222.0636,550.6211 " fill="none" id="codelink.backend.document_model.DocumentModel-to-codelink.backend.tree_model.TreeModel" style="stroke:#181818;stroke-width:1.0;"/><polygon fill="none" points="2217.23,567.96,2227.8432,552.2323,2216.284,549.0099,2217.23,567.96" style="stroke:#181818;stroke-width:1.0;"/></g><!--link codelink.backend.edge_item.EdgeItem to codelink.backend.tree_item.TreeItem--><g id="link_codelink.backend.edge_item.EdgeItem_codelink.backend.tree_item.TreeItem"><path codeLine="106" d="M693.1,453.07 C794.04,513.8 977.1066,623.96 1113.5066,706.03 " fill="none" id="codelink.backend.edge_item.EdgeItem-to-codelink.backend.tree_item.TreeItem" style="stroke:#181818;stroke-width:1.0;"/><polygon fill="none" points="1128.93,715.31,1116.6,700.8888,1110.4133,711.1711,1128.93,715.31" style="stroke:#181818;stroke-width:1.0;"/></g><!--link codelink.backend.node_item.NodeItem to codelink.backend.base_item.BaseItem--><g id="link_codelink.backend.node_item.NodeItem_codelink.backend.base_item.BaseItem"><path codeLine="107" d="M791.72,266.06 C857.41,286.04 922.8493,305.9611 1001.0493,329.7511 " fill="none" id="codelink.backend.node_item.NodeItem-to-codelink.backend.base_item.BaseItem" style="stroke:#181818;stroke-width:1.0;"/><polygon fill="none" points="1018.27,334.99,1002.7956,324.0109,999.303,335.4914,1018.27,334.99" style="stroke:#181818;stroke-width:1.0;"/></g><!--link codelink.backend.nodes.node_package_1.node_category.node_sub_category_1.test_node_item_1.TestNodeItem1 to codelink.backend.node_item.NodeItem--><g id="link_codelink.backend.nodes.node_package_1.node_category.node_sub_category_1.test_node_item_1.TestNodeItem1_codelink.backend.node_item.NodeItem"><path codeLine="108" d="M453.23,102.1 C497.24,127.74 539.2379,152.2174 583.2379,177.8574 " fill="none" id="codelink.backend.nodes.node_package_1.node_category.node_sub_category_1.test_node_item_1.TestNodeItem1-to-codelink.backend.node_item.NodeItem" style="stroke:#181818;stroke-width:1.0;"/><polygon fill="none" points="598.79,186.92,586.2588,172.6733,580.217,183.0414,598.79,186.92" style="stroke:#181818;stroke-width:1.0;"/></g><!--link codelink.backend.properties.integer_property_item.IntegerPropertyItem to codelink.backend.property_item.PropertyItem--><g id="link_codelink.backend.properties.integer_property_item.IntegerPropertyItem_codelink.backend.property_item.PropertyItem"><path codeLine="109" d="M1273,118.35 C1273,143.68 1273,154.84 1273,176.34 " fill="none" id="codelink.backend.properties.integer_property_item.IntegerPropertyItem-to-codelink.backend.property_item.PropertyItem" style="stroke:#181818;stroke-width:1.0;"/><polygon fill="none" points="1273,194.34,1279,176.34,1267,176.34,1273,194.34" style="stroke:#181818;stroke-width:1.0;"/></g><!--link codelink.backend.property_item.PropertyItem to codelink.backend.base_item.BaseItem--><g id="link_codelink.backend.property_item.PropertyItem_codelink.backend.base_item.BaseItem"><path codeLine="110" d="M1273,258.88 C1273,279.71 1273,290.01 1273,316.65 " fill="none" id="codelink.backend.property_item.PropertyItem-to-codelink.backend.base_item.BaseItem" style="stroke:#181818;stroke-width:1.0;"/><polygon fill="none" points="1273,334.65,1279,316.65,1267,316.65,1273,334.65" style="stroke:#181818;stroke-width:1.0;"/></g><!--link codelink.backend.proxy_models.ColumnSwapProxyModel to codelink.backend.proxy_models.Level4ProxyModel--><g id="link_codelink.backend.proxy_models.ColumnSwapProxyModel_codelink.backend.proxy_models.Level4ProxyModel"><path codeLine="111" d="M2814,102.3 C2814,125.33 2814,136.67 2814,160.94 " fill="none" id="codelink.backend.proxy_models.ColumnSwapProxyModel-to-codelink.backend.proxy_models.Level4ProxyModel" style="stroke:#181818;stroke-width:1.0;"/><polygon fill="none" points="2814,178.94,2820,160.94,2808,160.94,2814,178.94" style="stroke:#181818;stroke-width:1.0;"/></g><!--link codelink.backend.root_item.RootItem to codelink.backend.tree_item.TreeItem--><g id="link_codelink.backend.root_item.RootItem_codelink.backend.tree_item.TreeItem"><path codeLine="112" d="M1873.94,437.58 C1786.08,490.86 1580.7109,615.3963 1432.6509,705.1863 " fill="none" id="codelink.backend.root_item.RootItem-to-codelink.backend.tree_item.TreeItem" style="stroke:#181818;stroke-width:1.0;"/><polygon fill="none" points="1417.26,714.52,1435.7622,710.3166,1429.5397,700.0559,1417.26,714.52" style="stroke:#181818;stroke-width:1.0;"/></g><!--link codelink.backend.seperator_item.SeperatorItem to codelink.backend.base_item.BaseItem--><g id="link_codelink.backend.seperator_item.SeperatorItem_codelink.backend.base_item.BaseItem"><path codeLine="113" d="M1744.83,250.56 C1683.02,271.77 1604.7948,298.6157 1516.0048,329.0957 " fill="none" id="codelink.backend.seperator_item.SeperatorItem-to-codelink.backend.base_item.BaseItem" style="stroke:#181818;stroke-width:1.0;"/><polygon fill="none" points="1498.98,334.94,1517.9529,334.7706,1514.0567,323.4208,1498.98,334.94" style="stroke:#181818;stroke-width:1.0;"/></g><!--link codelink.backend.tree_seperator_item.TreeSeperatorItem to codelink.backend.seperator_item.SeperatorItem--><g id="link_codelink.backend.tree_seperator_item.TreeSeperatorItem_codelink.backend.seperator_item.SeperatorItem"><path codeLine="114" d="M1954.22,86.71 C1922.66,117.51 1880.1522,158.9883 1848.6222,189.7583 " fill="none" id="codelink.backend.tree_seperator_item.TreeSeperatorItem-to-codelink.backend.seperator_item.SeperatorItem" style="stroke:#181818;stroke-width:1.0;"/><polygon fill="none" points="1835.74,202.33,1852.8128,194.0524,1844.4317,185.4642,1835.74,202.33" style="stroke:#181818;stroke-width:1.0;"/></g><!--link codelink.backend.root_item.RootItem to codelink.backend.tree_model.TreeModel--><g id="link_codelink.backend.root_item.RootItem_codelink.backend.tree_model.TreeModel"><path codeLine="115" d="M1926.29,437.58 C1943.35,465.12 1967.4208,503.9787 2000.4808,557.3487 " fill="none" id="codelink.backend.root_item.RootItem-to-codelink.backend.tree_model.TreeModel" style="stroke:#181818;stroke-width:1.0;"/><polygon fill="#181818" points="2006.8,567.55,2007.0408,560.3429,2000.4808,557.3487,2000.2399,564.5557,2006.8,567.55" style="stroke:#181818;stroke-width:1.0;"/><text fill="#000000" font-family="sans-serif" font-size="13" lengthAdjust="spacing" textLength="61" x="1984" y="534.7686">_root_item</text></g><!--SRC=[xLZTRzis47_tNo7qIHqS0Htwv8S2MR8C0ROsgOFjeGW4MheuX6LH8AcuHjV_VNT7of9iIPQDODY6FSGXwUDz_EwJDc23NAp152A1EHH22wjqaAiS9aacZ0dU92g5JEQhQ26I5UGf_ZSGImlhw2TStUBYJI1CC88k-3O9WXLiyVD5P2NW_qI3i113Ab5kYF8XjxFWtluXqoLO4zsxnJHGXPKgRtqrjziCFl7vxn8s964Qo3o5hqHsfJH4zx-HLhTq5hvz6rny21ozoBuSo7X4TRw9XR5Q9FPx8MHkG_u4JVn-AMLqV-Vshw0EA_EHS6vADM0z5d4gh0ZTkXEGOuPwtiHnJTyTPSXKDSDBhnFPmSoFYrmebRNCAOkqzcwy1BK6gxT3IhoMczdwxxqndAgaN6EeEMYYQxzbDjtHF7I3u_f9PX1JBk5Q6YAJJn9It8aqZIqOwppGT0uQ61SQhDt6k-kE004SK1yG6fTQF-EgFmKFwLZL59MHkI14uxAKfADHfKx0xVhbvdWGFw5dbTv67t5puzRTqlkeMGVwqjG5WBOXcJyZqzkPIbT9TqhGJ8cKYGtcfdrcwYcNi9XhM7tTGwm1Co0S4nEiBeDL2HmmgqN71XNAk7GhYpXvbbcAfMoqNEEueWKhWIvxvxO98hCay7XdoiNk12auedQwuC437bGQlUjN_TL5LTO7io2Jnfu7Gg5L0TfAL8ygx19qx8-s3kjRTthd3_lTSmudDY5H6RQWNVRzuthJVw0t7FM_Tz5eBtVGT_boKExNhGF1H5SgAzVvV2EAEpeUw0P7hx4MQr7SQBMUSsqDVOaTdWWEZnsV1-MvECadCnc9mA_m0jcF9rc_VwLgXZWcNIO95DPyLflAUAqsCmmLZ2X_K6TLfoL-elYN0ld-T23V_mzaf9MoBgy_uwg_1XpI8MJzR0rWZQ3dZRiphxRz0ePk38go6lo8y82hVW67TAvw-Sv9VPNTYWi_fucYm8kkjuRyEGkgkqr7Eu8gIjhTfQAdfY9pWuKpRfDFWm7E6jRg1U8E0HK1HYdl9IlUUjoSEXOmG6xY9bq6KgcBai5Sm5BciTSQTQCfZUPYuqAMSapJ2tYtvI5fjzi56VaWJrLiB4giFK5VXJi_rf1DlUlwSyWpS9DlDLpDWcgkwh-OSB-vKYK_K0VJthc0ktjlWaxHnWngDrxcz41_oiJIXEEosaQay0tTO3ZLEavbOaE4oY9ZMd_XEHrPF_BD2YKaVnRcgWg9SKKCR_XoXsvDIcqa5iwjqtK7Ez61I45Va_464ZUYSNGhBP54L4DRPSId-jXXqe23cJSJX7tWDqVKxdGYCumPgnLiG_ppRvaZp1epulxtZsssL352-l2C6ogFuyILWUExjlkiIETN0-laO1oEgaPir1VRnlJNCwTAU4PBSnM2McnjRSEmTlNRGwM3JcsQ2Tf8Hgo2rqVoaNyScr7axUUcvswLIp2V1SFMjjFlMB7Twtc4xOXEEUggQvaZVYQykFZpmvXcEJdjLve1jdkDOpBcbvJpjUpu1Q6RsI4sax_fJT-jpw7YazTvVtUBwt_aJKvv49wFxV5dNg_Y_NFzPCmWUtvm3GwjvqCnBiEx-G-fD1AD7qPEVBCWtjt_2m00]--></g></svg>