<?xml version="1.0" encoding="us-ascii" standalone="no"?><svg xmlns="http://www.w3.org/2000/svg" xmlns:xlink="http://www.w3.org/1999/xlink" contentStyleType="text/css" height="1060px" preserveAspectRatio="none" style="width:3414px;height:1060px;background:#FFFFFF;" version="1.1" viewBox="0 0 3414 1060" width="3414px" zoomAndPan="magnify"><defs/><g><!--class codelink.backend.document_model.DocumentModel--><g id="elem_codelink.backend.document_model.DocumentModel"><rect codeLine="2" fill="#F1F1F1" height="110.5625" id="codelink.backend.document_model.DocumentModel" rx="2.5" ry="2.5" style="stroke:#181818;stroke-width:0.5;" width="360" x="394.58" y="7"/><ellipse cx="409.58" cy="23" fill="#ADD1B2" rx="11" ry="11" style="stroke:#181818;stroke-width:1.0;"/><path d="M412.3456,18.875 Q412.5019,18.6563 412.6894,18.5469 Q412.8769,18.4375 413.0956,18.4375 Q413.4706,18.4375 413.705,18.7031 Q413.9394,18.9531 413.9394,19.5625 L413.9394,21.0156 Q413.9394,21.625 413.705,21.8906 Q413.4706,22.1563 413.0956,22.1563 Q412.7519,22.1563 412.5488,21.9531 Q412.3456,21.7656 412.2363,21.25 Q412.1894,20.8906 412.0019,20.7031 Q411.6738,20.3281 411.0644,20.1094 Q410.455,19.8906 409.83,19.8906 Q409.0644,19.8906 408.4238,20.2188 Q407.7988,20.5469 407.2988,21.2969 Q406.8144,22.0469 406.8144,23.0781 L406.8144,24.1719 Q406.8144,25.4063 407.705,26.2344 Q408.5956,27.0469 410.1894,27.0469 Q411.1269,27.0469 411.7831,26.7969 Q412.1738,26.6406 412.5956,26.2031 Q412.8613,25.9375 413.0019,25.8594 Q413.1581,25.7813 413.3613,25.7813 Q413.6894,25.7813 413.9394,26.0469 Q414.205,26.2969 414.205,26.6406 Q414.205,26.9844 413.8613,27.3906 Q413.3613,27.9688 412.5644,28.2969 Q411.4863,28.75 410.1894,28.75 Q408.6738,28.75 407.4706,28.125 Q406.4863,27.625 405.7988,26.5625 Q405.1113,25.4844 405.1113,24.2031 L405.1113,23.0469 Q405.1113,21.7188 405.7206,20.5781 Q406.3456,19.4219 407.4394,18.8125 Q408.5331,18.1875 409.7675,18.1875 Q410.5019,18.1875 411.1425,18.3594 Q411.7988,18.5156 412.3456,18.875 Z " fill="#000000"/><text fill="#000000" font-family="sans-serif" font-size="14" lengthAdjust="spacing" textLength="328" x="423.58" y="27.8535">codelink.backend.document_model.DocumentModel</text><line style="stroke:#181818;stroke-width:0.5;" x1="395.58" x2="753.58" y1="39" y2="39"/><text fill="#000000" font-family="sans-serif" font-size="14" lengthAdjust="spacing" textLength="61" x="400.58" y="55.6738">file_name</text><text fill="#000000" font-family="sans-serif" font-size="14" lengthAdjust="spacing" textLength="71" x="400.58" y="71.3145">is_modified</text><line style="stroke:#181818;stroke-width:0.5;" x1="395.58" x2="753.58" y1="78.2813" y2="78.2813"/><text fill="#000000" font-family="sans-serif" font-size="14" lengthAdjust="spacing" textLength="155" x="400.58" y="94.9551">add_test_data() -&gt; None</text><text fill="#000000" font-family="sans-serif" font-size="14" lengthAdjust="spacing" textLength="180" x="400.58" y="110.5957">get_pretty_file_name() -&gt; str</text></g><!--class codelink.backend.node_factory.NodeFactory--><g id="elem_codelink.backend.node_factory.NodeFactory"><rect codeLine="8" fill="#F1F1F1" height="110.5625" id="codelink.backend.node_factory.NodeFactory" rx="2.5" ry="2.5" style="stroke:#181818;stroke-width:0.5;" width="315" x="1907.08" y="373.5"/><ellipse cx="1922.53" cy="389.5" fill="#ADD1B2" rx="11" ry="11" style="stroke:#181818;stroke-width:1.0;"/><path d="M1925.2956,385.375 Q1925.4519,385.1563 1925.6394,385.0469 Q1925.8269,384.9375 1926.0456,384.9375 Q1926.4206,384.9375 1926.655,385.2031 Q1926.8894,385.4531 1926.8894,386.0625 L1926.8894,387.5156 Q1926.8894,388.125 1926.655,388.3906 Q1926.4206,388.6563 1926.0456,388.6563 Q1925.7019,388.6563 1925.4988,388.4531 Q1925.2956,388.2656 1925.1863,387.75 Q1925.1394,387.3906 1924.9519,387.2031 Q1924.6238,386.8281 1924.0144,386.6094 Q1923.405,386.3906 1922.78,386.3906 Q1922.0144,386.3906 1921.3738,386.7188 Q1920.7488,387.0469 1920.2488,387.7969 Q1919.7644,388.5469 1919.7644,389.5781 L1919.7644,390.6719 Q1919.7644,391.9063 1920.655,392.7344 Q1921.5456,393.5469 1923.1394,393.5469 Q1924.0769,393.5469 1924.7331,393.2969 Q1925.1238,393.1406 1925.5456,392.7031 Q1925.8113,392.4375 1925.9519,392.3594 Q1926.1081,392.2813 1926.3113,392.2813 Q1926.6394,392.2813 1926.8894,392.5469 Q1927.155,392.7969 1927.155,393.1406 Q1927.155,393.4844 1926.8113,393.8906 Q1926.3113,394.4688 1925.5144,394.7969 Q1924.4363,395.25 1923.1394,395.25 Q1921.6238,395.25 1920.4206,394.625 Q1919.4363,394.125 1918.7488,393.0625 Q1918.0613,391.9844 1918.0613,390.7031 L1918.0613,389.5469 Q1918.0613,388.2188 1918.6706,387.0781 Q1919.2956,385.9219 1920.3894,385.3125 Q1921.4831,384.6875 1922.7175,384.6875 Q1923.4519,384.6875 1924.0925,384.8594 Q1924.7488,385.0156 1925.2956,385.375 Z " fill="#000000"/><text fill="#000000" font-family="sans-serif" font-size="14" lengthAdjust="spacing" textLength="282" x="1936.63" y="394.3535">codelink.backend.node_factory.NodeFactory</text><line style="stroke:#181818;stroke-width:0.5;" x1="1908.08" x2="2221.08" y1="405.5" y2="405.5"/><text fill="#000000" font-family="sans-serif" font-size="14" lengthAdjust="spacing" textLength="39" x="1913.08" y="422.1738">nodes</text><line style="stroke:#181818;stroke-width:0.5;" x1="1908.08" x2="2221.08" y1="429.1406" y2="429.1406"/><text fill="#000000" font-family="sans-serif" font-size="14" lengthAdjust="spacing" textLength="290" x="1913.08" y="445.8145">create_node(name: str) -&gt; Optional[NodeItem]</text><text fill="#000000" font-family="sans-serif" font-size="14" lengthAdjust="spacing" textLength="303" x="1913.08" y="461.4551">load_nodes(path: str, name_space: str) -&gt; None</text><text fill="#000000" font-family="sans-serif" font-size="14" lengthAdjust="spacing" textLength="96" x="1913.08" y="477.0957">reset() -&gt; None</text></g><!--class codelink.backend.root_item.RootItem--><g id="elem_codelink.backend.root_item.RootItem"><rect codeLine="14" fill="#F1F1F1" height="48" id="codelink.backend.root_item.RootItem" rx="2.5" ry="2.5" style="stroke:#181818;stroke-width:0.5;" width="265" x="1448.08" y="38.5"/><ellipse cx="1463.08" cy="54.5" fill="#ADD1B2" rx="11" ry="11" style="stroke:#181818;stroke-width:1.0;"/><path d="M1465.8456,50.375 Q1466.0019,50.1563 1466.1894,50.0469 Q1466.3769,49.9375 1466.5956,49.9375 Q1466.9706,49.9375 1467.205,50.2031 Q1467.4394,50.4531 1467.4394,51.0625 L1467.4394,52.5156 Q1467.4394,53.125 1467.205,53.3906 Q1466.9706,53.6563 1466.5956,53.6563 Q1466.2519,53.6563 1466.0488,53.4531 Q1465.8456,53.2656 1465.7363,52.75 Q1465.6894,52.3906 1465.5019,52.2031 Q1465.1738,51.8281 1464.5644,51.6094 Q1463.955,51.3906 1463.33,51.3906 Q1462.5644,51.3906 1461.9238,51.7188 Q1461.2988,52.0469 1460.7988,52.7969 Q1460.3144,53.5469 1460.3144,54.5781 L1460.3144,55.6719 Q1460.3144,56.9063 1461.205,57.7344 Q1462.0956,58.5469 1463.6894,58.5469 Q1464.6269,58.5469 1465.2831,58.2969 Q1465.6738,58.1406 1466.0956,57.7031 Q1466.3613,57.4375 1466.5019,57.3594 Q1466.6581,57.2813 1466.8613,57.2813 Q1467.1894,57.2813 1467.4394,57.5469 Q1467.705,57.7969 1467.705,58.1406 Q1467.705,58.4844 1467.3613,58.8906 Q1466.8613,59.4688 1466.0644,59.7969 Q1464.9863,60.25 1463.6894,60.25 Q1462.1738,60.25 1460.9706,59.625 Q1459.9863,59.125 1459.2988,58.0625 Q1458.6113,56.9844 1458.6113,55.7031 L1458.6113,54.5469 Q1458.6113,53.2188 1459.2206,52.0781 Q1459.8456,50.9219 1460.9394,50.3125 Q1462.0331,49.6875 1463.2675,49.6875 Q1464.0019,49.6875 1464.6425,49.8594 Q1465.2988,50.0156 1465.8456,50.375 Z " fill="#000000"/><text fill="#000000" font-family="sans-serif" font-size="14" lengthAdjust="spacing" textLength="233" x="1477.08" y="59.3535">codelink.backend.root_item.RootItem</text><line style="stroke:#181818;stroke-width:0.5;" x1="1449.08" x2="1712.08" y1="70.5" y2="70.5"/><line style="stroke:#181818;stroke-width:0.5;" x1="1449.08" x2="1712.08" y1="78.5" y2="78.5"/></g><!--class codelink.backend.tree_item.TreeItem--><g id="elem_codelink.backend.tree_item.TreeItem"><rect codeLine="16" fill="#F1F1F1" height="188.7656" id="codelink.backend.tree_item.TreeItem" rx="2.5" ry="2.5" style="stroke:#181818;stroke-width:0.5;" width="288" x="1583.58" y="334.5"/><ellipse cx="1608.93" cy="350.5" fill="#ADD1B2" rx="11" ry="11" style="stroke:#181818;stroke-width:1.0;"/><path d="M1611.6956,346.375 Q1611.8519,346.1563 1612.0394,346.0469 Q1612.2269,345.9375 1612.4456,345.9375 Q1612.8206,345.9375 1613.055,346.2031 Q1613.2894,346.4531 1613.2894,347.0625 L1613.2894,348.5156 Q1613.2894,349.125 1613.055,349.3906 Q1612.8206,349.6563 1612.4456,349.6563 Q1612.1019,349.6563 1611.8987,349.4531 Q1611.6956,349.2656 1611.5862,348.75 Q1611.5394,348.3906 1611.3519,348.2031 Q1611.0237,347.8281 1610.4144,347.6094 Q1609.805,347.3906 1609.18,347.3906 Q1608.4144,347.3906 1607.7737,347.7188 Q1607.1487,348.0469 1606.6487,348.7969 Q1606.1644,349.5469 1606.1644,350.5781 L1606.1644,351.6719 Q1606.1644,352.9063 1607.055,353.7344 Q1607.9456,354.5469 1609.5394,354.5469 Q1610.4769,354.5469 1611.1331,354.2969 Q1611.5237,354.1406 1611.9456,353.7031 Q1612.2112,353.4375 1612.3519,353.3594 Q1612.5081,353.2813 1612.7112,353.2813 Q1613.0394,353.2813 1613.2894,353.5469 Q1613.555,353.7969 1613.555,354.1406 Q1613.555,354.4844 1613.2112,354.8906 Q1612.7112,355.4688 1611.9144,355.7969 Q1610.8362,356.25 1609.5394,356.25 Q1608.0237,356.25 1606.8206,355.625 Q1605.8362,355.125 1605.1487,354.0625 Q1604.4612,352.9844 1604.4612,351.7031 L1604.4612,350.5469 Q1604.4612,349.2188 1605.0706,348.0781 Q1605.6956,346.9219 1606.7894,346.3125 Q1607.8831,345.6875 1609.1175,345.6875 Q1609.8519,345.6875 1610.4925,345.8594 Q1611.1487,346.0156 1611.6956,346.375 Z " fill="#000000"/><text fill="#000000" font-family="sans-serif" font-size="14" lengthAdjust="spacing" textLength="233" x="1625.23" y="355.3535">codelink.backend.tree_item.TreeItem</text><line style="stroke:#181818;stroke-width:0.5;" x1="1584.58" x2="1870.58" y1="366.5" y2="366.5"/><text fill="#000000" font-family="sans-serif" font-size="14" lengthAdjust="spacing" textLength="50" x="1589.58" y="383.1738">children</text><text fill="#000000" font-family="sans-serif" font-size="14" lengthAdjust="spacing" textLength="41" x="1589.58" y="398.8145">parent</text><text fill="#000000" font-family="sans-serif" font-size="14" lengthAdjust="spacing" textLength="27" x="1589.58" y="414.4551">uuid</text><line style="stroke:#181818;stroke-width:0.5;" x1="1584.58" x2="1870.58" y1="421.4219" y2="421.4219"/><text fill="#000000" font-family="sans-serif" font-size="14" lengthAdjust="spacing" textLength="236" x="1589.58" y="438.0957">append_child(child: TreeItem) -&gt; bool</text><text fill="#000000" font-family="sans-serif" font-size="14" lengthAdjust="spacing" textLength="222" x="1589.58" y="453.7363">child(row: int) -&gt; Optional[TreeItem]</text><text fill="#000000" font-family="sans-serif" font-size="14" lengthAdjust="spacing" textLength="276" x="1589.58" y="469.377">insert_child(row: int, child: TreeItem) -&gt; bool</text><text fill="#000000" font-family="sans-serif" font-size="14" lengthAdjust="spacing" textLength="187" x="1589.58" y="485.0176">remove_child(row: int) -&gt; bool</text><text fill="#000000" font-family="sans-serif" font-size="14" lengthAdjust="spacing" textLength="68" x="1589.58" y="500.6582">row() -&gt; int</text><text fill="#000000" font-family="sans-serif" font-size="14" font-style="italic" lengthAdjust="spacing" textLength="158" x="1589.58" y="516.2988">setup_children() -&gt; None</text></g><!--class codelink.backend.tree_model.TreeModel--><g id="elem_codelink.backend.tree_model.TreeModel"><rect codeLine="27" fill="#F1F1F1" height="470.2969" id="codelink.backend.tree_model.TreeModel" rx="2.5" ry="2.5" style="stroke:#181818;stroke-width:0.5;" width="570" x="978.58" y="194"/><ellipse cx="1130.83" cy="210" fill="#ADD1B2" rx="11" ry="11" style="stroke:#181818;stroke-width:1.0;"/><path d="M1133.5956,205.875 Q1133.7519,205.6563 1133.9394,205.5469 Q1134.1269,205.4375 1134.3456,205.4375 Q1134.7206,205.4375 1134.955,205.7031 Q1135.1894,205.9531 1135.1894,206.5625 L1135.1894,208.0156 Q1135.1894,208.625 1134.955,208.8906 Q1134.7206,209.1563 1134.3456,209.1563 Q1134.0019,209.1563 1133.7988,208.9531 Q1133.5956,208.7656 1133.4863,208.25 Q1133.4394,207.8906 1133.2519,207.7031 Q1132.9238,207.3281 1132.3144,207.1094 Q1131.705,206.8906 1131.08,206.8906 Q1130.3144,206.8906 1129.6738,207.2188 Q1129.0488,207.5469 1128.5488,208.2969 Q1128.0644,209.0469 1128.0644,210.0781 L1128.0644,211.1719 Q1128.0644,212.4063 1128.955,213.2344 Q1129.8456,214.0469 1131.4394,214.0469 Q1132.3769,214.0469 1133.0331,213.7969 Q1133.4238,213.6406 1133.8456,213.2031 Q1134.1113,212.9375 1134.2519,212.8594 Q1134.4081,212.7813 1134.6113,212.7813 Q1134.9394,212.7813 1135.1894,213.0469 Q1135.455,213.2969 1135.455,213.6406 Q1135.455,213.9844 1135.1113,214.3906 Q1134.6113,214.9688 1133.8144,215.2969 Q1132.7363,215.75 1131.4394,215.75 Q1129.9238,215.75 1128.7206,215.125 Q1127.7363,214.625 1127.0488,213.5625 Q1126.3613,212.4844 1126.3613,211.2031 L1126.3613,210.0469 Q1126.3613,208.7188 1126.9706,207.5781 Q1127.5956,206.4219 1128.6894,205.8125 Q1129.7831,205.1875 1131.0175,205.1875 Q1131.7519,205.1875 1132.3925,205.3594 Q1133.0488,205.5156 1133.5956,205.875 Z " fill="#000000"/><text fill="#000000" font-family="sans-serif" font-size="14" lengthAdjust="spacing" textLength="257" x="1151.33" y="214.8535">codelink.backend.tree_model.TreeModel</text><line style="stroke:#181818;stroke-width:0.5;" x1="979.58" x2="1547.58" y1="226" y2="226"/><text fill="#000000" font-family="sans-serif" font-size="14" lengthAdjust="spacing" textLength="127" x="984.58" y="242.6738">begin_remove_rows</text><text fill="#000000" font-family="sans-serif" font-size="14" lengthAdjust="spacing" textLength="80" x="984.58" y="258.3145">edges_index</text><text fill="#000000" font-family="sans-serif" font-size="14" lengthAdjust="spacing" textLength="84" x="984.58" y="273.9551">frames_index</text><text fill="#000000" font-family="sans-serif" font-size="14" lengthAdjust="spacing" textLength="80" x="984.58" y="289.5957">nodes_index</text><text fill="#000000" font-family="sans-serif" font-size="14" lengthAdjust="spacing" textLength="59" x="984.58" y="305.2363">root_item</text><text fill="#000000" font-family="sans-serif" font-size="14" lengthAdjust="spacing" textLength="73" x="984.58" y="320.877">undo_stack</text><line style="stroke:#181818;stroke-width:0.5;" x1="979.58" x2="1547.58" y1="327.8438" y2="327.8438"/><text fill="#000000" font-family="sans-serif" font-size="14" lengthAdjust="spacing" textLength="417" x="984.58" y="344.5176">append_item(tree_item: TreeItem, parent) -&gt; QtCore.QModelIndex</text><text fill="#000000" font-family="sans-serif" font-size="14" lengthAdjust="spacing" textLength="384" x="984.58" y="360.1582">append_node(node_item: NodeItem) -&gt; QtCore.QModelIndex</text><text fill="#000000" font-family="sans-serif" font-size="14" lengthAdjust="spacing" textLength="310" x="984.58" y="375.7988">columnCount(parent: QtCore.QModelIndex) -&gt; int</text><text fill="#000000" font-family="sans-serif" font-size="14" lengthAdjust="spacing" textLength="311" x="984.58" y="391.4395">data(index: QtCore.QModelIndex, role: int) -&gt; Any</text><text fill="#000000" font-family="sans-serif" font-size="14" lengthAdjust="spacing" textLength="364" x="984.58" y="407.0801">flags(index: QtCore.QModelIndex) -&gt; QtCore.Qt.ItemFlags</text><text fill="#000000" font-family="sans-serif" font-size="14" lengthAdjust="spacing" textLength="262" x="984.58" y="422.7207">from_dict(state: dict[str, Any]) -&gt; TreeItem</text><text fill="#000000" font-family="sans-serif" font-size="14" lengthAdjust="spacing" textLength="315" x="984.58" y="438.3613">hasChildren(parent: QtCore.QModelIndex) -&gt; bool</text><text fill="#000000" font-family="sans-serif" font-size="14" lengthAdjust="spacing" textLength="240" x="984.58" y="454.002">has_parent_recursively(index, parent)</text><text fill="#000000" font-family="sans-serif" font-size="14" lengthAdjust="spacing" textLength="452" x="984.58" y="469.6426">headerData(section: int, orientation: QtCore.Qt.Orientation, role) -&gt; Any</text><text fill="#000000" font-family="sans-serif" font-size="14" lengthAdjust="spacing" textLength="506" x="984.58" y="485.2832">index(row: int, column: int, parent: QtCore.QModelIndex) -&gt; QtCore.QModelIndex</text><text fill="#000000" font-family="sans-serif" font-size="14" lengthAdjust="spacing" textLength="558" x="984.58" y="500.9238">index_from_key(key: str, parent: QtCore.QModelIndex) -&gt; Optional[QtCore.QModelIndex]</text><text fill="#000000" font-family="sans-serif" font-size="14" lengthAdjust="spacing" textLength="455" x="984.58" y="516.5645">index_from_uuid(uuid: str, column: int) -&gt; Optional[QtCore.QModelIndex]</text><text fill="#000000" font-family="sans-serif" font-size="14" lengthAdjust="spacing" textLength="457" x="984.58" y="532.2051">insert_item(row: int, tree_item: TreeItem, parent) -&gt; QtCore.QModelIndex</text><text fill="#000000" font-family="sans-serif" font-size="14" lengthAdjust="spacing" textLength="363" x="984.58" y="547.8457">item_from_index(index: QtCore.QModelIndex) -&gt; TreeItem</text><text fill="#000000" font-family="sans-serif" font-size="14" lengthAdjust="spacing" textLength="296" x="984.58" y="563.4863">item_from_uuid(uuid: str) -&gt; Optional[TreeItem]</text><text fill="#000000" font-family="sans-serif" font-size="14" lengthAdjust="spacing" textLength="377" x="984.58" y="579.127">parent(index: QtCore.QModelIndex) -&gt; QtCore.QModelIndex</text><text fill="#000000" font-family="sans-serif" font-size="14" lengthAdjust="spacing" textLength="226" x="984.58" y="594.7676">removeRow(row: int, parent) -&gt; bool</text><text fill="#000000" font-family="sans-serif" font-size="14" lengthAdjust="spacing" textLength="233" x="984.58" y="610.4082">remove_item(row: int, parent) -&gt; bool</text><text fill="#000000" font-family="sans-serif" font-size="14" lengthAdjust="spacing" textLength="147" x="984.58" y="626.0488">rowCount(parent) -&gt; int</text><text fill="#000000" font-family="sans-serif" font-size="14" lengthAdjust="spacing" textLength="409" x="984.58" y="641.6895">setData(index: QtCore.QModelIndex, value: Any, role: int) -&gt; bool</text><text fill="#000000" font-family="sans-serif" font-size="14" lengthAdjust="spacing" textLength="373" x="984.58" y="657.3301">to_dict(parent_index: QtCore.QModelIndex) -&gt; dict[str, Any]</text></g><!--class codelink.frontend.cachable_gr_proxy.CachableGrProxy--><g id="elem_codelink.frontend.cachable_gr_proxy.CachableGrProxy"><rect codeLine="56" fill="#F1F1F1" height="110.5625" id="codelink.frontend.cachable_gr_proxy.CachableGrProxy" rx="2.5" ry="2.5" style="stroke:#181818;stroke-width:0.5;" width="729" x="2648.08" y="7"/><ellipse cx="2834.33" cy="23" fill="#ADD1B2" rx="11" ry="11" style="stroke:#181818;stroke-width:1.0;"/><path d="M2837.0956,18.875 Q2837.2519,18.6563 2837.4394,18.5469 Q2837.6269,18.4375 2837.8456,18.4375 Q2838.2206,18.4375 2838.455,18.7031 Q2838.6894,18.9531 2838.6894,19.5625 L2838.6894,21.0156 Q2838.6894,21.625 2838.455,21.8906 Q2838.2206,22.1563 2837.8456,22.1563 Q2837.5019,22.1563 2837.2988,21.9531 Q2837.0956,21.7656 2836.9863,21.25 Q2836.9394,20.8906 2836.7519,20.7031 Q2836.4238,20.3281 2835.8144,20.1094 Q2835.205,19.8906 2834.58,19.8906 Q2833.8144,19.8906 2833.1738,20.2188 Q2832.5488,20.5469 2832.0488,21.2969 Q2831.5644,22.0469 2831.5644,23.0781 L2831.5644,24.1719 Q2831.5644,25.4063 2832.455,26.2344 Q2833.3456,27.0469 2834.9394,27.0469 Q2835.8769,27.0469 2836.5331,26.7969 Q2836.9238,26.6406 2837.3456,26.2031 Q2837.6113,25.9375 2837.7519,25.8594 Q2837.9081,25.7813 2838.1113,25.7813 Q2838.4394,25.7813 2838.6894,26.0469 Q2838.955,26.2969 2838.955,26.6406 Q2838.955,26.9844 2838.6113,27.3906 Q2838.1113,27.9688 2837.3144,28.2969 Q2836.2363,28.75 2834.9394,28.75 Q2833.4238,28.75 2832.2206,28.125 Q2831.2363,27.625 2830.5488,26.5625 Q2829.8613,25.4844 2829.8613,24.2031 L2829.8613,23.0469 Q2829.8613,21.7188 2830.4706,20.5781 Q2831.0956,19.4219 2832.1894,18.8125 Q2833.2831,18.1875 2834.5175,18.1875 Q2835.2519,18.1875 2835.8925,18.3594 Q2836.5488,18.5156 2837.0956,18.875 Z " fill="#000000"/><text fill="#000000" font-family="sans-serif" font-size="14" lengthAdjust="spacing" textLength="348" x="2854.83" y="27.8535">codelink.frontend.cachable_gr_proxy.CachableGrProxy</text><line style="stroke:#181818;stroke-width:0.5;" x1="2649.08" x2="3376.08" y1="39" y2="39"/><text fill="#000000" font-family="sans-serif" font-size="14" lengthAdjust="spacing" textLength="71" x="2654.08" y="55.6738">is_selected</text><line style="stroke:#181818;stroke-width:0.5;" x1="2649.08" x2="3376.08" y1="62.6406" y2="62.6406"/><text fill="#000000" font-family="sans-serif" font-size="14" lengthAdjust="spacing" textLength="717" x="2654.08" y="79.3145">paint(painter: QtGui.QPainter, option: QtWidgets.QStyleOptionGraphicsItem, widget: QtWidgets.QWidget) -&gt; None</text><text fill="#000000" font-family="sans-serif" font-size="14" lengthAdjust="spacing" textLength="276" x="2654.08" y="94.9551">setGeometry(rect: QtCore.QRectF) -&gt; None</text><text fill="#000000" font-family="sans-serif" font-size="14" lengthAdjust="spacing" textLength="154" x="2654.08" y="110.5957">update_cache() -&gt; None</text></g><!--class codelink.frontend.document_view.DocumentView--><g id="elem_codelink.frontend.document_view.DocumentView"><rect codeLine="62" fill="#F1F1F1" height="157.4844" id="codelink.frontend.document_view.DocumentView" rx="2.5" ry="2.5" style="stroke:#181818;stroke-width:0.5;" width="738" x="205.58" y="350.5"/><ellipse cx="416.83" cy="366.5" fill="#ADD1B2" rx="11" ry="11" style="stroke:#181818;stroke-width:1.0;"/><path d="M419.5956,362.375 Q419.7519,362.1563 419.9394,362.0469 Q420.1269,361.9375 420.3456,361.9375 Q420.7206,361.9375 420.955,362.2031 Q421.1894,362.4531 421.1894,363.0625 L421.1894,364.5156 Q421.1894,365.125 420.955,365.3906 Q420.7206,365.6563 420.3456,365.6563 Q420.0019,365.6563 419.7988,365.4531 Q419.5956,365.2656 419.4863,364.75 Q419.4394,364.3906 419.2519,364.2031 Q418.9238,363.8281 418.3144,363.6094 Q417.705,363.3906 417.08,363.3906 Q416.3144,363.3906 415.6738,363.7188 Q415.0488,364.0469 414.5488,364.7969 Q414.0644,365.5469 414.0644,366.5781 L414.0644,367.6719 Q414.0644,368.9063 414.955,369.7344 Q415.8456,370.5469 417.4394,370.5469 Q418.3769,370.5469 419.0331,370.2969 Q419.4238,370.1406 419.8456,369.7031 Q420.1113,369.4375 420.2519,369.3594 Q420.4081,369.2813 420.6113,369.2813 Q420.9394,369.2813 421.1894,369.5469 Q421.455,369.7969 421.455,370.1406 Q421.455,370.4844 421.1113,370.8906 Q420.6113,371.4688 419.8144,371.7969 Q418.7363,372.25 417.4394,372.25 Q415.9238,372.25 414.7206,371.625 Q413.7363,371.125 413.0488,370.0625 Q412.3613,368.9844 412.3613,367.7031 L412.3613,366.5469 Q412.3613,365.2188 412.9706,364.0781 Q413.5956,362.9219 414.6894,362.3125 Q415.7831,361.6875 417.0175,361.6875 Q417.7519,361.6875 418.3925,361.8594 Q419.0488,362.0156 419.5956,362.375 Z " fill="#000000"/><text fill="#000000" font-family="sans-serif" font-size="14" lengthAdjust="spacing" textLength="307" x="437.33" y="371.3535">codelink.frontend.document_view.DocumentView</text><line style="stroke:#181818;stroke-width:0.5;" x1="206.58" x2="942.58" y1="382.5" y2="382.5"/><text fill="#000000" font-family="sans-serif" font-size="14" lengthAdjust="spacing" textLength="38" x="211.58" y="399.1738">model</text><line style="stroke:#181818;stroke-width:0.5;" x1="206.58" x2="942.58" y1="406.1406" y2="406.1406"/><text fill="#000000" font-family="sans-serif" font-size="14" lengthAdjust="spacing" textLength="300" x="211.58" y="422.8145">closeEvent(event: QtGui.QCloseEvent) -&gt; None</text><text fill="#000000" font-family="sans-serif" font-size="14" lengthAdjust="spacing" textLength="594" x="211.58" y="438.4551">graphics_item_from_index(index: QtCore.QModelIndex) -&gt; Optional[QtWidgets.QGraphicsItem]</text><text fill="#000000" font-family="sans-serif" font-size="14" lengthAdjust="spacing" textLength="609" x="211.58" y="454.0957">on_model_begin_remove_rows(parent: QtCore.QModelIndex, first_row: int, last_row: int) -&gt; None</text><text fill="#000000" font-family="sans-serif" font-size="14" lengthAdjust="spacing" textLength="726" x="211.58" y="469.7363">on_model_data_changed(top_left: QtCore.QModelIndex, bottom_right: QtCore.QModelIndex, roles: list[int]) -&gt; None</text><text fill="#000000" font-family="sans-serif" font-size="14" lengthAdjust="spacing" textLength="570" x="211.58" y="485.377">on_model_rows_inserted(parent: QtCore.QModelIndex, first_row: int, last_row: int) -&gt; None</text><text fill="#000000" font-family="sans-serif" font-size="14" lengthAdjust="spacing" textLength="108" x="211.58" y="501.0176">update() -&gt; None</text></g><!--class codelink.frontend.main_window.MainWindow--><g id="elem_codelink.frontend.main_window.MainWindow"><rect codeLine="71" fill="#F1F1F1" height="313.8906" id="codelink.frontend.main_window.MainWindow" rx="2.5" ry="2.5" style="stroke:#181818;stroke-width:0.5;" width="643" x="1804.08" y="740"/><ellipse cx="1981.83" cy="756" fill="#ADD1B2" rx="11" ry="11" style="stroke:#181818;stroke-width:1.0;"/><path d="M1984.5956,751.875 Q1984.7519,751.6563 1984.9394,751.5469 Q1985.1269,751.4375 1985.3456,751.4375 Q1985.7206,751.4375 1985.955,751.7031 Q1986.1894,751.9531 1986.1894,752.5625 L1986.1894,754.0156 Q1986.1894,754.625 1985.955,754.8906 Q1985.7206,755.1563 1985.3456,755.1563 Q1985.0019,755.1563 1984.7988,754.9531 Q1984.5956,754.7656 1984.4863,754.25 Q1984.4394,753.8906 1984.2519,753.7031 Q1983.9238,753.3281 1983.3144,753.1094 Q1982.705,752.8906 1982.08,752.8906 Q1981.3144,752.8906 1980.6738,753.2188 Q1980.0488,753.5469 1979.5488,754.2969 Q1979.0644,755.0469 1979.0644,756.0781 L1979.0644,757.1719 Q1979.0644,758.4063 1979.955,759.2344 Q1980.8456,760.0469 1982.4394,760.0469 Q1983.3769,760.0469 1984.0331,759.7969 Q1984.4238,759.6406 1984.8456,759.2031 Q1985.1113,758.9375 1985.2519,758.8594 Q1985.4081,758.7813 1985.6113,758.7813 Q1985.9394,758.7813 1986.1894,759.0469 Q1986.455,759.2969 1986.455,759.6406 Q1986.455,759.9844 1986.1113,760.3906 Q1985.6113,760.9688 1984.8144,761.2969 Q1983.7363,761.75 1982.4394,761.75 Q1980.9238,761.75 1979.7206,761.125 Q1978.7363,760.625 1978.0488,759.5625 Q1977.3613,758.4844 1977.3613,757.2031 L1977.3613,756.0469 Q1977.3613,754.7188 1977.9706,753.5781 Q1978.5956,752.4219 1979.6894,751.8125 Q1980.7831,751.1875 1982.0175,751.1875 Q1982.7519,751.1875 1983.3925,751.3594 Q1984.0488,751.5156 1984.5956,751.875 Z " fill="#000000"/><text fill="#000000" font-family="sans-serif" font-size="14" lengthAdjust="spacing" textLength="279" x="2002.33" y="760.8535">codelink.frontend.main_window.MainWindow</text><line style="stroke:#181818;stroke-width:0.5;" x1="1805.08" x2="2446.08" y1="772" y2="772"/><line style="stroke:#181818;stroke-width:0.5;" x1="1805.08" x2="2446.08" y1="780" y2="780"/><text fill="#000000" font-family="sans-serif" font-size="14" lengthAdjust="spacing" textLength="155" x="1810.08" y="796.6738">add_test_data() -&gt; None</text><text fill="#000000" font-family="sans-serif" font-size="14" lengthAdjust="spacing" textLength="300" x="1810.08" y="812.3145">closeEvent(event: QtGui.QCloseEvent) -&gt; None</text><text fill="#000000" font-family="sans-serif" font-size="14" lengthAdjust="spacing" textLength="240" x="1810.08" y="827.9551">create_detail_tree_view() -&gt; TreeView</text><text fill="#000000" font-family="sans-serif" font-size="14" lengthAdjust="spacing" textLength="229" x="1810.08" y="843.5957">create_doc_tree_view() -&gt; TreeView</text><text fill="#000000" font-family="sans-serif" font-size="14" lengthAdjust="spacing" textLength="261" x="1810.08" y="859.2363">create_edit_menu() -&gt; QtWidgets.QMenu</text><text fill="#000000" font-family="sans-serif" font-size="14" lengthAdjust="spacing" textLength="256" x="1810.08" y="874.877">create_file_menu() -&gt; QtWidgets.QMenu</text><text fill="#000000" font-family="sans-serif" font-size="14" lengthAdjust="spacing" textLength="232" x="1810.08" y="890.5176">create_item_tree_view() -&gt; TreeView</text><text fill="#000000" font-family="sans-serif" font-size="14" lengthAdjust="spacing" textLength="271" x="1810.08" y="906.1582">create_mdi_area() -&gt; QtWidgets.QMdiArea</text><text fill="#000000" font-family="sans-serif" font-size="14" lengthAdjust="spacing" textLength="277" x="1810.08" y="921.7988">create_nodes_menu() -&gt; QtWidgets.QMenu</text><text fill="#000000" font-family="sans-serif" font-size="14" lengthAdjust="spacing" textLength="103" x="1810.08" y="937.4395">delete() -&gt; None</text><text fill="#000000" font-family="sans-serif" font-size="14" lengthAdjust="spacing" textLength="631" x="1810.08" y="953.0801">load_nodes(node_factory: NodeFactory, nodes_path: str, nodes_menu: QtWidgets.QMenu) -&gt; None</text><text fill="#000000" font-family="sans-serif" font-size="14" lengthAdjust="spacing" textLength="89" x="1810.08" y="968.7207">new() -&gt; None</text><text fill="#000000" font-family="sans-serif" font-size="14" lengthAdjust="spacing" textLength="620" x="1810.08" y="984.3613">on_selection_changed(current: QtCore.QItemSelection, previous: QtCore.QItemSelection) -&gt; None</text><text fill="#000000" font-family="sans-serif" font-size="14" lengthAdjust="spacing" textLength="448" x="1810.08" y="1000.002">on_sub_wnd_changed(sub_wnd: QtWidgets.QMdiSubWindow) -&gt; None</text><text fill="#000000" font-family="sans-serif" font-size="14" lengthAdjust="spacing" textLength="96" x="1810.08" y="1015.6426">open() -&gt; None</text><text fill="#000000" font-family="sans-serif" font-size="14" lengthAdjust="spacing" textLength="94" x="1810.08" y="1031.2832">save() -&gt; None</text><text fill="#000000" font-family="sans-serif" font-size="14" lengthAdjust="spacing" textLength="117" x="1810.08" y="1046.9238">save_as() -&gt; None</text></g><!--class codelink.frontend.node_gr_item.NodeGrItem--><g id="elem_codelink.frontend.node_gr_item.NodeGrItem"><rect codeLine="90" fill="#F1F1F1" height="329.5313" id="codelink.frontend.node_gr_item.NodeGrItem" rx="2.5" ry="2.5" style="stroke:#181818;stroke-width:0.5;" width="790" x="2617.58" y="264"/><ellipse cx="2868.83" cy="280" fill="#ADD1B2" rx="11" ry="11" style="stroke:#181818;stroke-width:1.0;"/><path d="M2871.5956,275.875 Q2871.7519,275.6563 2871.9394,275.5469 Q2872.1269,275.4375 2872.3456,275.4375 Q2872.7206,275.4375 2872.955,275.7031 Q2873.1894,275.9531 2873.1894,276.5625 L2873.1894,278.0156 Q2873.1894,278.625 2872.955,278.8906 Q2872.7206,279.1563 2872.3456,279.1563 Q2872.0019,279.1563 2871.7988,278.9531 Q2871.5956,278.7656 2871.4863,278.25 Q2871.4394,277.8906 2871.2519,277.7031 Q2870.9238,277.3281 2870.3144,277.1094 Q2869.705,276.8906 2869.08,276.8906 Q2868.3144,276.8906 2867.6738,277.2188 Q2867.0488,277.5469 2866.5488,278.2969 Q2866.0644,279.0469 2866.0644,280.0781 L2866.0644,281.1719 Q2866.0644,282.4063 2866.955,283.2344 Q2867.8456,284.0469 2869.4394,284.0469 Q2870.3769,284.0469 2871.0331,283.7969 Q2871.4238,283.6406 2871.8456,283.2031 Q2872.1113,282.9375 2872.2519,282.8594 Q2872.4081,282.7813 2872.6113,282.7813 Q2872.9394,282.7813 2873.1894,283.0469 Q2873.455,283.2969 2873.455,283.6406 Q2873.455,283.9844 2873.1113,284.3906 Q2872.6113,284.9688 2871.8144,285.2969 Q2870.7363,285.75 2869.4394,285.75 Q2867.9238,285.75 2866.7206,285.125 Q2865.7363,284.625 2865.0488,283.5625 Q2864.3613,282.4844 2864.3613,281.2031 L2864.3613,280.0469 Q2864.3613,278.7188 2864.9706,277.5781 Q2865.5956,276.4219 2866.6894,275.8125 Q2867.7831,275.1875 2869.0175,275.1875 Q2869.7519,275.1875 2870.3925,275.3594 Q2871.0488,275.5156 2871.5956,275.875 Z " fill="#000000"/><text fill="#000000" font-family="sans-serif" font-size="14" lengthAdjust="spacing" textLength="279" x="2889.33" y="284.8535">codelink.frontend.node_gr_item.NodeGrItem</text><line style="stroke:#181818;stroke-width:0.5;" x1="2618.58" x2="3406.58" y1="296" y2="296"/><text fill="#000000" font-family="sans-serif" font-size="14" lengthAdjust="spacing" textLength="103" x="2623.58" y="312.6738">persistent_index</text><line style="stroke:#181818;stroke-width:0.5;" x1="2618.58" x2="3406.58" y1="319.6406" y2="319.6406"/><text fill="#000000" font-family="sans-serif" font-size="14" lengthAdjust="spacing" textLength="218" x="2623.58" y="336.3145">boundingRect() -&gt; QtCore.QRectF</text><text fill="#000000" font-family="sans-serif" font-size="14" lengthAdjust="spacing" textLength="237" x="2623.58" y="351.9551">create_content() -&gt; CachableGrProxy</text><text fill="#000000" font-family="sans-serif" font-size="14" lengthAdjust="spacing" textLength="360" x="2623.58" y="367.5957">create_pins() -&gt; list[list[QtWidgets.QGraphicsEllipseItem]]</text><text fill="#000000" font-family="sans-serif" font-size="14" lengthAdjust="spacing" textLength="584" x="2623.58" y="383.2363">create_pins_group(sep_index: QtCore.QModelIndex) -&gt; list[QtWidgets.QGraphicsEllipseItem]</text><text fill="#000000" font-family="sans-serif" font-size="14" lengthAdjust="spacing" textLength="292" x="2623.58" y="398.877">create_title() -&gt; QtWidgets.QGraphicsTextItem</text><text fill="#000000" font-family="sans-serif" font-size="14" lengthAdjust="spacing" textLength="347" x="2623.58" y="414.5176">crop_text(text: str, width: float, font: QtGui.QFont) -&gt; str</text><text fill="#000000" font-family="sans-serif" font-size="14" lengthAdjust="spacing" textLength="469" x="2623.58" y="430.1582">hoverEnterEvent(event: QtWidgets.QGraphicsSceneMouseEvent) -&gt; None</text><text fill="#000000" font-family="sans-serif" font-size="14" lengthAdjust="spacing" textLength="469" x="2623.58" y="445.7988">hoverLeaveEvent(event: QtWidgets.QGraphicsSceneHoverEvent) -&gt; None</text><text fill="#000000" font-family="sans-serif" font-size="14" lengthAdjust="spacing" textLength="196" x="2623.58" y="461.4395">index() -&gt; QtCore.QModelIndex</text><text fill="#000000" font-family="sans-serif" font-size="14" lengthAdjust="spacing" textLength="561" x="2623.58" y="477.0801">itemChange(change: QtWidgets.QGraphicsItem.GraphicsItemChange, value: Any) -&gt; Any</text><text fill="#000000" font-family="sans-serif" font-size="14" lengthAdjust="spacing" textLength="321" x="2623.58" y="492.7207">on_collapsed(index: QtCore.QModelIndex) -&gt; None</text><text fill="#000000" font-family="sans-serif" font-size="14" lengthAdjust="spacing" textLength="778" x="2623.58" y="508.3613">paint(painter: QtGui.QPainter, option: QtWidgets.QStyleOptionGraphicsItem, widget: Optional[QtWidgets.QWidget]) -&gt; None</text><text fill="#000000" font-family="sans-serif" font-size="14" lengthAdjust="spacing" textLength="300" x="2623.58" y="524.002">update(rect: Optional[QtCore.QRectF]) -&gt; None</text><text fill="#000000" font-family="sans-serif" font-size="14" lengthAdjust="spacing" textLength="210" x="2623.58" y="539.6426">update_content_height() -&gt; None</text><text fill="#000000" font-family="sans-serif" font-size="14" lengthAdjust="spacing" textLength="88" x="2623.58" y="555.2832">update_pins()</text><text fill="#000000" font-family="sans-serif" font-size="14" lengthAdjust="spacing" textLength="111" x="2623.58" y="570.9238">update_position()</text><text fill="#000000" font-family="sans-serif" font-size="14" lengthAdjust="spacing" textLength="138" x="2623.58" y="586.5645">update_title() -&gt; None</text></g><!--class codelink.frontend.tree_view.TreeView--><g id="elem_codelink.frontend.tree_view.TreeView"><rect codeLine="110" fill="#F1F1F1" height="94.9219" id="codelink.frontend.tree_view.TreeView" rx="2.5" ry="2.5" style="stroke:#181818;stroke-width:0.5;" width="325" x="2257.08" y="381.5"/><ellipse cx="2297.73" cy="397.5" fill="#ADD1B2" rx="11" ry="11" style="stroke:#181818;stroke-width:1.0;"/><path d="M2300.4956,393.375 Q2300.6519,393.1563 2300.8394,393.0469 Q2301.0269,392.9375 2301.2456,392.9375 Q2301.6206,392.9375 2301.855,393.2031 Q2302.0894,393.4531 2302.0894,394.0625 L2302.0894,395.5156 Q2302.0894,396.125 2301.855,396.3906 Q2301.6206,396.6563 2301.2456,396.6563 Q2300.9019,396.6563 2300.6988,396.4531 Q2300.4956,396.2656 2300.3863,395.75 Q2300.3394,395.3906 2300.1519,395.2031 Q2299.8238,394.8281 2299.2144,394.6094 Q2298.605,394.3906 2297.98,394.3906 Q2297.2144,394.3906 2296.5738,394.7188 Q2295.9488,395.0469 2295.4488,395.7969 Q2294.9644,396.5469 2294.9644,397.5781 L2294.9644,398.6719 Q2294.9644,399.9063 2295.855,400.7344 Q2296.7456,401.5469 2298.3394,401.5469 Q2299.2769,401.5469 2299.9331,401.2969 Q2300.3238,401.1406 2300.7456,400.7031 Q2301.0113,400.4375 2301.1519,400.3594 Q2301.3081,400.2813 2301.5113,400.2813 Q2301.8394,400.2813 2302.0894,400.5469 Q2302.355,400.7969 2302.355,401.1406 Q2302.355,401.4844 2302.0113,401.8906 Q2301.5113,402.4688 2300.7144,402.7969 Q2299.6363,403.25 2298.3394,403.25 Q2296.8238,403.25 2295.6206,402.625 Q2294.6363,402.125 2293.9488,401.0625 Q2293.2613,399.9844 2293.2613,398.7031 L2293.2613,397.5469 Q2293.2613,396.2188 2293.8706,395.0781 Q2294.4956,393.9219 2295.5894,393.3125 Q2296.6831,392.6875 2297.9175,392.6875 Q2298.6519,392.6875 2299.2925,392.8594 Q2299.9488,393.0156 2300.4956,393.375 Z " fill="#000000"/><text fill="#000000" font-family="sans-serif" font-size="14" lengthAdjust="spacing" textLength="236" x="2317.43" y="402.3535">codelink.frontend.tree_view.TreeView</text><line style="stroke:#181818;stroke-width:0.5;" x1="2258.08" x2="2581.08" y1="413.5" y2="413.5"/><line style="stroke:#181818;stroke-width:0.5;" x1="2258.08" x2="2581.08" y1="421.5" y2="421.5"/><text fill="#000000" font-family="sans-serif" font-size="14" lengthAdjust="spacing" textLength="262" x="2263.08" y="438.1738">focusNextPrevChild(forward: bool) -&gt; bool</text><text fill="#000000" font-family="sans-serif" font-size="14" lengthAdjust="spacing" textLength="313" x="2263.08" y="453.8145">keyPressEvent(event: QtGui.QKeyEvent) -&gt; None</text><text fill="#000000" font-family="sans-serif" font-size="14" lengthAdjust="spacing" textLength="162" x="2263.08" y="469.4551">visible_row_height() -&gt; int</text></g><!--link codelink.backend.document_model.DocumentModel to codelink.backend.tree_model.TreeModel--><g id="link_codelink.backend.document_model.DocumentModel_codelink.backend.tree_model.TreeModel"><path codeLine="115" d="M754.58,110.75 C821.32,131.75 896.35,159.59 960.58,194 C966.44,197.14 956.6733,191.4566 962.5333,194.8066 " fill="none" id="codelink.backend.document_model.DocumentModel-to-codelink.backend.tree_model.TreeModel" style="stroke:#181818;stroke-width:1.0;"/><polygon fill="none" points="978.16,203.74,965.5111,189.5977,959.5555,200.0155,978.16,203.74" style="stroke:#181818;stroke-width:1.0;"/></g><!--link codelink.backend.root_item.RootItem to codelink.backend.tree_item.TreeItem--><g id="link_codelink.backend.root_item.RootItem_codelink.backend.tree_item.TreeItem"><path codeLine="116" d="M1589.88,86.58 C1609.54,135.33 1649.5187,234.436 1683.0787,317.666 " fill="none" id="codelink.backend.root_item.RootItem-to-codelink.backend.tree_item.TreeItem" style="stroke:#181818;stroke-width:1.0;"/><polygon fill="none" points="1689.81,334.36,1688.6433,315.4222,1677.514,319.9098,1689.81,334.36" style="stroke:#181818;stroke-width:1.0;"/></g><!--link codelink.backend.document_model.DocumentModel to codelink.frontend.main_window.MainWindow--><g id="link_codelink.backend.document_model.DocumentModel_codelink.frontend.main_window.MainWindow"><path codeLine="117" d="M394.57,87.22 C268.21,108 115.01,142.92 75.58,194 C11.75,276.67 6,586.1 75.58,664 C188.52,790.45 1243.8434,856.1923 1791.9934,882.1523 " fill="none" id="codelink.backend.document_model.DocumentModel-to-codelink.frontend.main_window.MainWindow" style="stroke:#181818;stroke-width:1.0;"/><polygon fill="#181818" points="1803.98,882.72,1798.1759,878.4406,1791.9934,882.1523,1797.7975,886.4317,1803.98,882.72" style="stroke:#181818;stroke-width:1.0;"/><text fill="#000000" font-family="sans-serif" font-size="13" lengthAdjust="spacing" textLength="110" x="76.58" y="433.7686">_active_doc_model</text></g><!--link codelink.backend.node_factory.NodeFactory to codelink.frontend.main_window.MainWindow--><g id="link_codelink.backend.node_factory.NodeFactory_codelink.frontend.main_window.MainWindow"><path codeLine="118" d="M2058.36,484.64 C2053.21,541.39 2048.63,632.56 2061.58,710 C2063.22,719.85 2062.4962,718.2194 2064.9362,728.2594 " fill="none" id="codelink.backend.node_factory.NodeFactory-to-codelink.frontend.main_window.MainWindow" style="stroke:#181818;stroke-width:1.0;"/><polygon fill="#181818" points="2067.77,739.92,2070.2399,733.1451,2064.9362,728.2594,2062.4662,735.0343,2067.77,739.92" style="stroke:#181818;stroke-width:1.0;"/><text fill="#000000" font-family="sans-serif" font-size="13" lengthAdjust="spacing" textLength="81" x="2062.58" y="706.7686">_node_factory</text></g><!--link codelink.backend.root_item.RootItem to codelink.backend.tree_model.TreeModel--><g id="link_codelink.backend.root_item.RootItem_codelink.backend.tree_model.TreeModel"><path codeLine="119" d="M1560.51,86.58 C1539.89,110.29 1513.3448,140.8053 1475.1048,184.7753 " fill="none" id="codelink.backend.root_item.RootItem-to-codelink.backend.tree_model.TreeModel" style="stroke:#181818;stroke-width:1.0;"/><polygon fill="#181818" points="1467.23,193.83,1474.1856,191.9276,1475.1048,184.7753,1468.1491,186.6777,1467.23,193.83" style="stroke:#181818;stroke-width:1.0;"/><text fill="#000000" font-family="sans-serif" font-size="13" lengthAdjust="spacing" textLength="61" x="1505.58" y="160.7686">_root_item</text></g><!--link codelink.frontend.cachable_gr_proxy.CachableGrProxy to codelink.frontend.node_gr_item.NodeGrItem--><g id="link_codelink.frontend.cachable_gr_proxy.CachableGrProxy_codelink.frontend.node_gr_item.NodeGrItem"><path codeLine="120" d="M3012.58,118.07 C3012.58,156.9 3012.58,199.26 3012.58,251.63 " fill="none" id="codelink.frontend.cachable_gr_proxy.CachableGrProxy-to-codelink.frontend.node_gr_item.NodeGrItem" style="stroke:#181818;stroke-width:1.0;"/><polygon fill="#181818" points="3012.58,263.63,3016.58,257.63,3012.58,251.63,3008.58,257.63,3012.58,263.63" style="stroke:#181818;stroke-width:1.0;"/><text fill="#000000" font-family="sans-serif" font-size="13" lengthAdjust="spacing" textLength="82" x="3013.58" y="160.7686">_content_item</text></g><!--link codelink.frontend.document_view.DocumentView to codelink.frontend.main_window.MainWindow--><g id="link_codelink.frontend.document_view.DocumentView_codelink.frontend.main_window.MainWindow"><path codeLine="121" d="M679.54,507.5 C754.35,559.17 859.23,624.6 960.58,664 C1234.72,770.58 1553.1169,828.8116 1791.8869,860.9016 " fill="none" id="codelink.frontend.document_view.DocumentView-to-codelink.frontend.main_window.MainWindow" style="stroke:#181818;stroke-width:1.0;"/><polygon fill="#181818" points="1803.78,862.5,1798.3663,857.7364,1791.8869,860.9016,1797.3007,865.6652,1803.78,862.5" style="stroke:#181818;stroke-width:1.0;"/><text fill="#000000" font-family="sans-serif" font-size="13" lengthAdjust="spacing" textLength="99" x="1083.58" y="706.7686">_active_doc_view</text></g><!--link codelink.frontend.tree_view.TreeView to codelink.frontend.main_window.MainWindow--><g id="link_codelink.frontend.tree_view.TreeView_codelink.frontend.main_window.MainWindow"><path codeLine="122" d="M2391.88,476.85 C2360.06,527.73 2303.86,609.05 2239.58,664 C2218.41,682.09 2202.04,672.31 2184.58,694 C2173.52,707.73 2169.3976,712.4871 2162.0976,728.9771 " fill="none" id="codelink.frontend.tree_view.TreeView-to-codelink.frontend.main_window.MainWindow" style="stroke:#181818;stroke-width:1.0;"/><polygon fill="#181818" points="2157.24,739.95,2163.3264,736.0828,2162.0976,728.9771,2156.0112,732.8444,2157.24,739.95" style="stroke:#181818;stroke-width:1.0;"/><text fill="#000000" font-family="sans-serif" font-size="13" lengthAdjust="spacing" textLength="88" x="2185.58" y="706.7686">_doc_tree_view</text></g><!--link codelink.frontend.tree_view.TreeView to codelink.frontend.main_window.MainWindow--><g id="link_codelink.frontend.tree_view.TreeView_codelink.frontend.main_window.MainWindow"><path codeLine="123" d="M2399.96,476.57 C2375.09,533.57 2329.31,632.13 2278.58,710 C2272.13,719.9 2272.2566,720.1351 2265.1066,730.0551 " fill="none" id="codelink.frontend.tree_view.TreeView-to-codelink.frontend.main_window.MainWindow-1" style="stroke:#181818;stroke-width:1.0;"/><polygon fill="#181818" points="2258.09,739.79,2264.8432,737.2614,2265.1066,730.0551,2258.3533,732.5837,2258.09,739.79" style="stroke:#181818;stroke-width:1.0;"/><text fill="#000000" font-family="sans-serif" font-size="13" lengthAdjust="spacing" textLength="92" x="2289.58" y="706.7686">_item_tree_view</text></g><!--link codelink.frontend.tree_view.TreeView to codelink.frontend.main_window.MainWindow--><g id="link_codelink.frontend.tree_view.TreeView_codelink.frontend.main_window.MainWindow"><path codeLine="124" d="M2425.96,476.73 C2431.59,535.45 2433.27,637.31 2390.58,710 C2384.46,720.42 2384.9844,721.02 2377.3644,730.57 " fill="none" id="codelink.frontend.tree_view.TreeView-to-codelink.frontend.main_window.MainWindow-2" style="stroke:#181818;stroke-width:1.0;"/><polygon fill="#181818" points="2369.88,739.95,2376.7488,737.7548,2377.3644,730.57,2370.4955,732.7652,2369.88,739.95" style="stroke:#181818;stroke-width:1.0;"/><text fill="#000000" font-family="sans-serif" font-size="13" lengthAdjust="spacing" textLength="98" x="2399.58" y="706.7686">_detail_tree_view</text></g><!--link codelink.backend.document_model.DocumentModel to codelink.frontend.document_view.DocumentView--><g id="link_codelink.backend.document_model.DocumentModel_codelink.frontend.document_view.DocumentView"><path codeLine="125" d="M574.58,118.07 C574.58,179.73 574.58,268.59 574.58,338.43 " fill="none" id="codelink.backend.document_model.DocumentModel-to-codelink.frontend.document_view.DocumentView" style="stroke:#181818;stroke-width:1.0;"/><polygon fill="none" points="574.58,350.43,578.58,344.43,574.58,338.43,570.58,344.43,574.58,350.43" style="stroke:#181818;stroke-width:1.0;"/><text fill="#000000" font-family="sans-serif" font-size="13" lengthAdjust="spacing" textLength="42" x="575.58" y="160.7686">_model</text></g><!--SRC=[jLXBZzis4Bxlhn1wKeEDVu0F0O9DTXkqUMmsQ0w1GT3Is2OYYm99sJ7I_FVE32c9iYLRJfl3QabvECzl7fG5bvHo2xQI6Jn19OrqsYIbBk4cAwIroM-Ppg5GvTVPKcPVeSndkSxgBPHEREcNsQkmVKkxtn9fawjE9DzlacIb2X2a1wwL9JArKf3ZJkQvS62ToAMJwU_9ynV9Er8kITRWH6N0kODeZti2wypDZr7rItmXLZ93Em-pTxYvz-jXrSUeMMtwqUB_p81qg05kKr9ZJYgmAkyhftGfYozqz8s3xGB92orp9hPf9Ts6gMyv38BZq1qFfXgmu2BZnuqpMZkXKCxi8wv8uB1PftHeq3XRPm0y-ITSZRCzfMC_PHjLv0PAN2B2CFAug6l5yQqgF2YO8kNdF6dEii5BhOk6HMhqVfweqlLzsz2JRrLfmJZH9xzDpd0siDKx40C26WAzzxvNhFXtkSJm80f-O53gIZJ6JOeFEyXd0Ubo9cU6ADcPIrYhKWIjKJS28EHhi4ALENoZR3AKqUsMaTRksiXJ3CfS2-jGOXS9-YbjuzYvx3Q4ZgryT7VQmEoHjNeJE0S6FWieRJo31ldZ1pDTrDloJjUbIxsG-G1X50Ak1MpG4E4jsbX05yQNvO6SKiYr7J_KqyxDIE5xEi7kr5kHgyobw2g7Z6dzXNCMMI_uPECb9Dz8UzT0ue8r0M1uGdXA36jM6wjsK1oyhgtRYGva3kOL6MyX8_07T6kZa4JwDvqHxxlNtYUHEvXvd20SWx2veFPW49cXO5zzXKEAVw6kNM3MPl7fxui-MweOAJq2uqZbQPouCZ2-Exj_2kb4xtNoRZoFgWWRtS6-CUFrpAio4RSz9Ns5-8Z5gxCsCgnV_OwyCa2dzt62Hic8LV3LXNpSoQB6l47a7UTcuEwqJx2G1UUjxQVVGB551vUEQcWciurSucomDZWgw6-7sLruys0-qBvVUgUVuqACWug50XEH1vLAAlOEFi6GxW-rcZr-y7jCqQh9piyAYxMpiySdToZ01_t1o6gZCklXjsUA7grVn3C1klq1z1QSEQHODQ84-uYx-vYqhd8QJyWgEDkbMWUq0zjEmRwTr_x6pOZ7nW-mgxYFKQKlj8NNEq8qx49LO3_TjJ_qHhpW5d5TmaM5e7LWx67AArtwvYfEskcPedsBWwh1MRHB57HWjurLR_bJhy8PGPPho5EdAr70QeJvKZk79XgrthZnncRdIQ6i-u825uCIoGZXgnsA_5-iyGYQXfqjGbxiCK9wFtkBwy-y7C7DC35ZPdpoln95OJhFmKbL22xuXDAqBSu4quXEPvU985Tucu6oJaC1Re7s5bzsT7mpcK370ByeTPihWU6KfynozHBVzwyYzgnWZ0JqGjgxbyJN7Z_2XNlFRHWduujBAsj-B2VcNZPsTNZrvHDpjKqGd7xwSALyVMh8i34Ps2bTsn62O_xrKkpvTk6vX_tyo7LFzTBZhdUywetqM73b3avU26cdPGKx5Di9Nux8dm_cz1frYPhpeW8S4Arh-oHT2R0pvwfSK-LFUnC1zu8E5Xdp3pH7FQsZgh1uU18kDFmOAAMlYq9LraygY_vfr5tN5KwfrOLUFeLtnzefLy09e9ipd-2R2tDMPh3GEjodz0WunRPAc5qXpB7MhNHKEEvrA1dqwG07RUm5vZKrxgCgSoBpAOCIxsRrGDbX9dy1WcGIapzOvZ4Jt-xEJw9tZExKWtnG07bb5c_yaNWmYwu6b8wwA2JwFx_GQOEMls3s6UhXVh4OQ4n-03gv033w5qEZaCy3iG7gjUa0XS-1QA-j8kxnkmYEbzA_BUspfggFPFufeVz0XXELVOTO_e05aA-NwKgRlJHOp6Y6ZeTfl7eXbRL37V9FE9nWRAUiec4N6t_F8JJUeqbNVSnx_loV5zE-PTnC-IPrXbtlAzFLMZwRFelC4u6j3w_aF1biXtKV_KnuhQYOqKGNFPluyGYvTnz_VkRICspBMAz2SKsQZKWySsdu3n4YPZUJ4kjQ8Rt9yDU8wC-1lyYCeq7uwkJHrrq0KIJp-HS0]--></g></svg>